<svg xmlns="http://www.w3.org/2000/svg" viewBox="0 0 313.92 313.92"><title>House Salad Icon</title><circle cx="156.96" cy="156.96" r="156.96" fill="#fff"/><circle cx="157.13" cy="157.11" r="130.8" fill="#d1b79d"/><polygon points="132.52 119.81 91.13 110.46 103.14 134.5 132.52 119.81" fill="#22ad00"/><polyline points="103.81 111.13 118.5 140.5 127.85 99.11" fill="#197200"/><polyline points="128.55 105.73 123.21 138.13 155.06 110.1" fill="#22ad00"/><polyline points="121.87 128.43 116.53 160.84 148.39 132.8" fill="#22ad00"/><polyline points="130.23 120.75 97.39 121.22 130.61 147.62" fill="#197200"/><polyline points="137.13 104.11 104.29 104.58 137.51 130.98" fill="#22ad00"/><polyline points="155.73 125.46 129.34 105.92 139.75 147.06" fill="#197200"/><polygon points="134.94 154.95 157.67 119.11 131 122.35 134.94 154.95" fill="#22ad00"/><polyline points="152.78 130.84 120.17 134.79 156.01 157.51" fill="#197200"/><polyline points="149.54 155.95 120.82 140.02 136.5 179.45" fill="#22ad00"/><polyline points="130.41 142.03 101.69 126.09 117.37 165.52" fill="#22ad00"/><polyline points="134.83 152.47 145.43 121.39 109.39 143.8" fill="#197200"/><polyline points="148.18 164.57 158.78 133.49 122.74 155.9" fill="#22ad00"/><polyline points="121.81 174.91 149.09 156.63 106.85 152.59" fill="#197200"/><polygon points="170.94 138.95 193.67 103.11 167 106.35 170.94 138.95" fill="#22ad00"/><polyline points="188.78 114.84 156.17 118.79 192.01 141.51" fill="#197200"/><polyline points="185.54 139.95 156.82 124.02 172.5 163.45" fill="#22ad00"/><polyline points="166.41 126.03 137.69 110.09 153.37 149.52" fill="#22ad00"/><polyline points="170.83 136.47 181.43 105.39 145.39 127.8" fill="#197200"/><polyline points="184.18 148.57 194.78 117.48 158.74 139.9" fill="#22ad00"/><polyline points="157.81 158.91 185.09 140.63 142.85 136.59" fill="#197200"/><polygon points="156.94 114.95 179.67 79.11 153 82.35 156.94 114.95" fill="#22ad00"/><polyline points="174.78 90.84 142.17 94.79 178.01 117.52" fill="#197200"/><polyline points="171.54 115.95 142.82 100.02 158.5 139.45" fill="#22ad00"/><polyline points="152.41 102.03 123.69 86.09 139.37 125.52" fill="#22ad00"/><polyline points="156.83 112.47 167.43 81.39 131.39 103.8" fill="#197200"/><polyline points="170.18 124.57 180.78 93.48 144.74 115.89" fill="#22ad00"/><polyline points="143.81 134.91 171.09 116.63 128.85 112.59" fill="#197200"/><polygon points="150.97 174.69 154.78 132.43 132.54 147.51 150.97 174.69" fill="#22ad00"/><polyline points="155.79 145.09 128.61 163.52 170.87 167.33" fill="#197200"/><polyline points="164.41 168.9 131.58 167.87 163.56 195.76" fill="#22ad00"/><polyline points="141.02 165.27 108.19 164.25 140.18 192.13" fill="#22ad00"/><polyline points="149.73 172.54 144.94 140.05 123.15 176.47" fill="#197200"/><polyline points="167.14 177.19 162.34 144.7 140.55 181.11" fill="#22ad00"/><polyline points="148.42 198.45 164.32 169.71 124.91 185.44" fill="#197200"/><polygon points="116.45 181.72 154.97 199.53 148.25 173.51 116.45 181.72" fill="#22ad00"/><polyline points="142.71 196.22 134.5 164.42 116.69 202.94" fill="#197200"/><polyline points="117.39 196.32 129.4 165.75 92.38 186.5" fill="#22ad00"/><polyline points="128.67 175.53 140.68 144.96 103.66 165.7" fill="#22ad00"/><polyline points="118.89 181.28 151.1 187.7 124.14 154.93" fill="#197200"/><polyline points="108.66 196.11 140.87 202.53 113.91 169.75" fill="#22ad00"/><polyline points="94.94 171.33 116.66 195.97 115.09 153.56" fill="#197200"/><polygon points="137.06 215.3 175.57 233.11 168.86 207.09 137.06 215.3" fill="#22ad00"/><polyline points="163.31 229.8 155.1 198 137.29 236.52" fill="#197200"/><polyline points="137.99 229.9 150 199.33 112.98 220.07" fill="#22ad00"/><polyline points="149.27 209.1 161.28 178.53 124.26 199.28" fill="#22ad00"/><polyline points="139.5 214.86 171.71 221.28 144.75 188.5" fill="#197200"/><polyline points="129.26 229.69 161.48 236.1 134.51 203.33" fill="#22ad00"/><polyline points="115.54 204.91 137.26 229.55 135.7 187.14" fill="#197200"/><polygon points="159 198.26 197.52 216.07 190.8 190.05 159 198.26" fill="#22ad00"/><polyline points="185.26 212.76 177.04 180.96 159.24 219.48" fill="#197200"/><polyline points="159.94 212.86 171.95 182.29 134.92 203.03" fill="#22ad00"/><polyline points="171.22 192.06 183.23 161.49 146.21 182.24" fill="#22ad00"/><polyline points="161.44 197.82 193.66 204.24 166.69 171.47" fill="#197200"/><polyline points="151.21 212.65 183.42 219.06 156.46 186.29" fill="#22ad00"/><polyline points="137.49 187.87 159.21 212.51 157.65 170.1" fill="#197200"/><polygon points="202.14 186.89 244.56 188.19 228.19 166.88 202.14 186.89" fill="#22ad00"/><polyline points="231.98 189.95 211.97 163.9 210.66 206.32" fill="#197200"/><polyline points="208.72 199.96 207.8 167.13 181.85 200.71" fill="#22ad00"/><polyline points="210.95 176.4 210.04 143.57 184.09 177.15" fill="#22ad00"/><polyline points="204.21 185.53 236.37 178.82 198.72 159.22" fill="#197200"/><polyline points="200.6 203.18 232.76 196.47 195.12 176.87" fill="#22ad00"/><polyline points="178.28 185.75 207.91 199.92 189.87 161.51" fill="#197200"/><polygon points="193.08 152.85 177.58 192.35 203.16 184.11 193.08 152.85" fill="#22ad00"/><polyline points="180.16 179.91 211.42 169.84 171.91 154.34" fill="#197200"/><polyline points="178.56 154.64 209.78 164.82 186.89 129.09" fill="#22ad00"/><polyline points="199.99 164.68 231.22 174.85 208.32 139.13" fill="#22ad00"/><polyline points="193.66 155.26 189.17 187.79 220.28 158.94" fill="#197200"/><polyline points="178.26 145.92 173.76 178.46 204.88 149.6" fill="#22ad00"/><polyline points="202.18 130.75 178.87 153.9 221.11 149.82" fill="#197200"/><polygon points="160.78 175.4 145.28 214.91 170.86 206.66 160.78 175.4" fill="#22ad00"/><polyline points="147.86 202.47 179.12 192.39 139.61 176.89" fill="#197200"/><polyline points="146.26 177.2 177.49 187.38 154.59 151.65" fill="#22ad00"/><polyline points="167.69 187.23 198.92 197.41 176.02 161.68" fill="#22ad00"/><polyline points="161.36 177.81 156.87 210.35 187.98 181.49" fill="#197200"/><polyline points="145.96 168.48 141.46 201.01 172.58 172.16" fill="#22ad00"/><polyline points="169.88 153.31 146.57 176.45 188.81 172.38" fill="#197200"/><polygon points="179.09 196.3 163.59 235.81 189.17 227.56 179.09 196.3" fill="#22ad00"/><polyline points="166.17 223.37 197.43 213.29 157.92 197.79" fill="#197200"/><polyline points="164.57 198.1 195.79 208.28 172.9 172.55" fill="#22ad00"/><polyline points="186 208.13 217.22 218.31 194.33 182.58" fill="#22ad00"/><polyline points="179.67 198.71 175.18 231.25 206.29 202.39" fill="#197200"/><polyline points="164.26 189.38 159.77 221.91 190.88 193.06" fill="#22ad00"/><polyline points="188.19 174.21 164.88 197.35 207.12 193.28" fill="#197200"/><polygon points="173.59 136.52 177.88 178.74 196.85 159.7 173.59 136.52" fill="#22ad00"/><polyline points="174.49 166.5 197.67 143.23 155.45 147.53" fill="#197200"/><polyline points="161.5 144.76 193.93 139.52 157.22 118.23" fill="#22ad00"/><polyline points="185.15 143.87 217.57 138.63 180.86 117.34" fill="#22ad00"/><polyline points="175.21 138.39 186.1 169.38 200.57 129.48" fill="#197200"/><polyline points="157.24 137.14 168.13 168.13 182.59 128.23" fill="#22ad00"/><polyline points="171.57 112.71 161.44 143.95 197.13 121" fill="#197200"/><polygon points="206.14 123.05 164.94 112.89 176.48 137.16 206.14 123.05" fill="#22ad00"/><polyline points="177.61 113.81 191.72 143.46 201.87 102.26" fill="#197200"/><polyline points="202.45 108.89 196.47 141.19 228.87 113.78" fill="#22ad00"/><polyline points="195.33 131.46 189.35 163.75 221.75 136.35" fill="#22ad00"/><polyline points="203.83 123.94 170.98 123.77 203.69 150.82" fill="#197200"/><polyline points="211.05 107.44 178.21 107.27 210.91 134.31" fill="#22ad00"/><polyline points="229.24 129.16 203.23 109.1 212.83 150.44" fill="#197200"/><polygon points="179.53 94 138.32 83.84 149.87 108.11 179.53 94" fill="#22ad00"/><polyline points="150.99 84.76 165.1 114.42 175.26 73.21" fill="#197200"/><polyline points="175.83 79.84 169.85 112.14 202.26 84.73" fill="#22ad00"/><polyline points="168.71 102.41 162.73 134.71 195.14 107.3" fill="#22ad00"/><polyline points="177.21 94.9 144.37 94.73 177.07 121.77" fill="#197200"/><polyline points="184.44 78.39 151.59 78.22 184.3 105.27" fill="#22ad00"/><polyline points="202.62 100.11 176.61 80.05 186.22 121.39" fill="#197200"/><polygon points="161.22 114.9 120.02 104.75 131.56 129.01 161.22 114.9" fill="#22ad00"/><polyline points="132.69 105.66 146.8 135.32 156.96 94.12" fill="#197200"/><polyline points="157.53 100.75 151.55 133.04 183.95 105.64" fill="#22ad00"/><polyline points="150.41 123.31 144.43 155.61 176.83 128.2" fill="#22ad00"/><polyline points="158.91 115.8 126.06 115.63 158.77 142.67" fill="#197200"/><polyline points="166.13 99.3 133.29 99.13 165.99 126.17" fill="#22ad00"/><polyline points="184.32 121.01 158.31 100.96 167.91 142.29" fill="#197200"/><polygon points="74.52 126.81 33.13 117.46 45.14 141.5 74.52 126.81" fill="#22ad00"/><polyline points="45.81 118.13 60.5 147.5 69.85 106.11" fill="#197200"/><polyline points="70.55 112.73 65.21 145.13 97.06 117.1" fill="#22ad00"/><polyline points="63.87 135.43 58.53 167.84 90.39 139.8" fill="#22ad00"/><polyline points="72.23 127.75 39.39 128.22 72.61 154.62" fill="#197200"/><polyline points="79.13 111.11 46.29 111.58 79.51 137.98" fill="#22ad00"/><polyline points="97.73 132.46 71.34 112.92 81.75 154.06" fill="#197200"/><polygon points="76.94 161.95 99.67 126.11 73 129.35 76.94 161.95" fill="#22ad00"/><polyline points="94.78 137.84 62.17 141.79 98.01 164.51" fill="#197200"/><polyline points="91.54 162.95 62.82 147.02 78.5 186.45" fill="#22ad00"/><polyline points="72.41 149.03 43.69 133.09 59.37 172.52" fill="#22ad00"/><polyline points="76.83 159.47 87.43 128.39 51.39 150.8" fill="#197200"/><polyline points="90.18 171.57 100.78 140.49 64.74 162.9" fill="#22ad00"/><polyline points="63.81 181.91 91.09 163.63 48.85 159.59" fill="#197200"/><polygon points="112.94 145.95 135.67 110.11 109 113.35 112.94 145.95" fill="#22ad00"/><polyline points="130.78 121.84 98.17 125.79 134.01 148.51" fill="#197200"/><polyline points="127.54 146.95 98.82 131.02 114.5 170.45" fill="#22ad00"/><polyline points="108.41 133.03 79.69 117.09 95.37 156.52" fill="#22ad00"/><polyline points="112.83 143.47 123.43 112.39 87.39 134.8" fill="#197200"/><polyline points="126.18 155.57 136.78 124.48 100.74 146.9" fill="#22ad00"/><polyline points="99.81 165.91 127.09 147.63 84.85 143.59" fill="#197200"/><polygon points="98.94 121.95 121.67 86.11 95 89.35 98.94 121.95" fill="#22ad00"/><polyline points="116.78 97.84 84.17 101.79 120.01 124.52" fill="#197200"/><polyline points="113.54 122.95 84.82 107.02 100.5 146.45" fill="#22ad00"/><polyline points="94.41 109.03 65.69 93.09 81.37 132.52" fill="#22ad00"/><polyline points="98.83 119.47 109.43 88.39 73.39 110.8" fill="#197200"/><polyline points="112.18 131.57 122.78 100.48 86.74 122.89" fill="#22ad00"/><polyline points="85.81 141.91 113.09 123.63 70.85 119.59" fill="#197200"/><polygon points="92.97 181.69 96.78 139.43 74.54 154.51 92.97 181.69" fill="#22ad00"/><polyline points="97.79 152.09 70.61 170.52 112.87 174.33" fill="#197200"/><polyline points="106.41 175.9 73.58 174.87 105.56 202.76" fill="#22ad00"/><polyline points="83.02 172.27 50.2 171.25 82.18 199.13" fill="#22ad00"/><polyline points="91.73 179.54 86.94 147.05 65.15 183.47" fill="#197200"/><polyline points="109.14 184.19 104.34 151.7 82.55 188.11" fill="#22ad00"/><polyline points="90.42 205.45 106.32 176.71 66.91 192.44" fill="#197200"/><polygon points="58.45 188.72 96.97 206.53 90.25 180.51 58.45 188.72" fill="#22ad00"/><polyline points="84.71 203.22 76.5 171.42 58.69 209.94" fill="#197200"/><polyline points="59.39 203.32 71.4 172.75 34.38 193.5" fill="#22ad00"/><polyline points="70.67 182.53 82.68 151.96 45.66 172.7" fill="#22ad00"/><polyline points="60.89 188.28 93.11 194.7 66.14 161.93" fill="#197200"/><polyline points="50.66 203.11 82.87 209.53 55.91 176.75" fill="#22ad00"/><polyline points="36.94 178.33 58.66 202.97 57.09 160.56" fill="#197200"/><polygon points="79.06 222.3 117.58 240.11 110.86 214.09 79.06 222.3" fill="#22ad00"/><polyline points="105.31 236.8 97.1 205 79.29 243.52" fill="#197200"/><polyline points="79.99 236.9 92 206.33 54.98 227.07" fill="#22ad00"/><polyline points="91.27 216.1 103.28 185.53 66.26 206.28" fill="#22ad00"/><polyline points="81.5 221.86 113.71 228.28 86.75 195.5" fill="#197200"/><polyline points="71.27 236.69 103.48 243.1 76.51 210.33" fill="#22ad00"/><polyline points="57.54 211.91 79.26 236.55 77.7 194.14" fill="#197200"/><polygon points="101 205.26 139.52 223.07 132.8 197.05 101 205.26" fill="#22ad00"/><polyline points="127.26 219.76 119.05 187.96 101.24 226.48" fill="#197200"/><polyline points="101.94 219.86 113.95 189.29 76.92 210.03" fill="#22ad00"/><polyline points="113.22 199.06 125.23 168.49 88.21 189.24" fill="#22ad00"/><polyline points="103.44 204.82 135.66 211.24 108.69 178.47" fill="#197200"/><polyline points="93.21 219.65 125.42 226.06 98.46 193.29" fill="#22ad00"/><polyline points="79.49 194.87 101.21 219.51 99.64 177.1" fill="#197200"/><polygon points="144.14 193.89 186.56 195.19 170.19 173.88 144.14 193.89" fill="#22ad00"/><polyline points="173.98 196.95 153.97 170.9 152.66 213.32" fill="#197200"/><polyline points="150.72 206.96 149.8 174.13 123.86 207.71" fill="#22ad00"/><polyline points="152.95 183.4 152.04 150.57 126.09 184.15" fill="#22ad00"/><polyline points="146.21 192.53 178.37 185.82 140.72 166.22" fill="#197200"/><polyline points="142.6 210.18 174.76 203.47 137.12 183.87" fill="#22ad00"/><polyline points="120.28 192.75 149.91 206.92 131.87 168.51" fill="#197200"/><polygon points="135.08 159.85 119.58 199.35 145.16 191.11 135.08 159.85" fill="#22ad00"/><polyline points="122.16 186.91 153.42 176.84 113.91 161.34" fill="#197200"/><polyline points="120.56 161.64 151.78 171.82 128.89 136.09" fill="#22ad00"/><polyline points="141.99 171.68 173.22 181.85 150.32 146.13" fill="#22ad00"/><polyline points="135.66 162.26 131.17 194.79 162.28 165.94" fill="#197200"/><polyline points="120.26 152.92 115.76 185.46 146.88 156.6" fill="#22ad00"/><polyline points="144.18 137.75 120.87 160.9 163.11 156.82" fill="#197200"/><polygon points="102.78 182.4 87.28 221.91 112.86 213.66 102.78 182.4" fill="#22ad00"/><polyline points="89.86 209.47 121.12 199.39 81.61 183.89" fill="#197200"/><polyline points="88.26 184.2 119.49 194.38 96.59 158.65" fill="#22ad00"/><polyline points="109.69 194.23 140.92 204.41 118.02 168.68" fill="#22ad00"/><polyline points="103.36 184.81 98.87 217.35 129.98 188.49" fill="#197200"/><polyline points="87.96 175.48 83.46 208.01 114.58 179.16" fill="#22ad00"/><polyline points="111.88 160.31 88.57 183.45 130.81 179.38" fill="#197200"/><polygon points="121.09 203.3 105.59 242.81 131.17 234.56 121.09 203.3" fill="#22ad00"/><polyline points="108.17 230.37 139.43 220.29 99.92 204.79" fill="#197200"/><polyline points="106.57 205.1 137.79 215.28 114.9 179.55" fill="#22ad00"/><polyline points="128 215.13 159.22 225.31 136.33 189.58" fill="#22ad00"/><polyline points="121.67 205.71 117.18 238.25 148.29 209.39" fill="#197200"/><polyline points="106.27 196.38 101.77 228.91 132.88 200.06" fill="#22ad00"/><polyline points="130.19 181.21 106.88 204.35 149.12 200.28" fill="#197200"/><polygon points="115.59 143.52 119.89 185.74 138.85 166.7 115.59 143.52" fill="#22ad00"/><polyline points="116.48 173.5 139.67 150.23 97.45 154.53" fill="#197200"/><polyline points="103.5 151.76 135.93 146.52 99.22 125.23" fill="#22ad00"/><polyline points="127.15 150.87 159.57 145.63 122.86 124.34" fill="#22ad00"/><polyline points="117.21 145.39 128.1 176.38 142.57 136.48" fill="#197200"/><polyline points="99.24 144.14 110.13 175.13 124.59 135.23" fill="#22ad00"/><polyline points="113.57 119.71 103.44 150.95 139.13 128" fill="#197200"/><polygon points="148.14 130.05 106.94 119.89 118.48 144.16 148.14 130.05" fill="#22ad00"/><polyline points="119.61 120.81 133.72 150.46 143.87 109.26" fill="#197200"/><polyline points="144.45 115.89 138.47 148.19 170.87 120.78" fill="#22ad00"/><polyline points="137.33 138.46 131.35 170.75 163.75 143.35" fill="#22ad00"/><polyline points="145.83 130.94 112.98 130.77 145.69 157.82" fill="#197200"/><polyline points="153.05 114.44 120.21 114.27 152.91 141.31" fill="#22ad00"/><polyline points="171.24 136.16 145.23 116.1 154.83 157.44" fill="#197200"/><polygon points="121.53 101 80.32 90.84 91.87 115.11 121.53 101" fill="#22ad00"/><polyline points="92.99 91.76 107.1 121.42 117.26 80.21" fill="#197200"/><polyline points="117.83 86.84 111.85 119.14 144.26 91.73" fill="#22ad00"/><polyline points="110.71 109.41 104.73 141.71 137.14 114.3" fill="#22ad00"/><polyline points="119.21 101.9 86.37 101.73 119.07 128.77" fill="#197200"/><polyline points="126.44 85.39 93.59 85.22 126.3 112.27" fill="#22ad00"/><polyline points="144.62 107.11 118.61 87.05 128.22 128.39" fill="#197200"/><polygon points="103.22 121.9 62.02 111.75 73.56 136.01 103.22 121.9" fill="#22ad00"/><polyline points="74.69 112.66 88.8 142.32 98.95 101.12" fill="#197200"/><polyline points="99.53 107.75 93.55 140.04 125.95 112.64" fill="#22ad00"/><polyline points="92.41 130.31 86.43 162.61 118.83 135.2" fill="#22ad00"/><polyline points="100.91 122.8 68.06 122.63 100.77 149.67" fill="#197200"/><polyline points="108.13 106.3 75.29 106.13 107.99 133.17" fill="#22ad00"/><polyline points="126.32 128.01 100.31 107.96 109.91 149.29" fill="#197200"/><polygon points="119.52 74.81 78.13 65.46 90.14 89.5 119.52 74.81" fill="#22ad00"/><polyline points="90.81 66.13 105.5 95.5 114.85 54.11" fill="#197200"/><polyline points="115.55 60.73 110.21 93.13 142.06 65.1" fill="#22ad00"/><polyline points="108.87 83.43 103.53 115.83 135.39 87.8" fill="#22ad00"/><polyline points="117.23 75.75 84.39 76.22 117.61 102.62" fill="#197200"/><polyline points="124.13 59.11 91.29 59.58 124.51 85.98" fill="#22ad00"/><polyline points="142.73 80.46 116.34 60.92 126.75 102.06" fill="#197200"/><polygon points="121.94 109.95 144.67 74.11 118 77.35 121.94 109.95" fill="#22ad00"/><polyline points="139.78 85.84 107.17 89.79 143.01 112.52" fill="#197200"/><polyline points="136.54 110.95 107.82 95.02 123.5 134.45" fill="#22ad00"/><polyline points="117.41 97.03 88.69 81.09 104.37 120.52" fill="#22ad00"/><polyline points="121.83 107.47 132.43 76.39 96.39 98.8" fill="#197200"/><polyline points="135.18 119.57 145.78 88.48 109.74 110.89" fill="#22ad00"/><polyline points="108.81 129.91 136.09 111.63 93.85 107.59" fill="#197200"/><polygon points="157.94 93.95 180.67 58.12 154 61.35 157.94 93.95" fill="#22ad00"/><polyline points="175.78 69.84 143.17 73.79 179.01 96.52" fill="#197200"/><polyline points="172.54 94.95 143.82 79.02 159.5 118.45" fill="#22ad00"/><polyline points="153.41 81.03 124.69 65.09 140.37 104.52" fill="#22ad00"/><polyline points="157.83 91.47 168.43 60.39 132.39 82.8" fill="#197200"/><polyline points="171.18 103.57 181.78 72.48 145.74 94.89" fill="#22ad00"/><polyline points="144.81 113.91 172.09 95.63 129.85 91.59" fill="#197200"/><polygon points="143.94 69.95 166.67 34.12 140 37.35 143.94 69.95" fill="#22ad00"/><polyline points="161.78 45.84 129.17 49.79 165.01 72.52" fill="#197200"/><polyline points="158.54 70.95 129.82 55.02 145.5 94.45" fill="#22ad00"/><polyline points="139.41 57.03 110.69 41.09 126.37 80.52" fill="#22ad00"/><polyline points="143.83 67.47 154.43 36.39 118.39 58.8" fill="#197200"/><polyline points="157.18 79.57 167.78 48.48 131.74 70.89" fill="#22ad00"/><polyline points="130.81 89.91 158.09 71.63 115.85 67.59" fill="#197200"/><polygon points="137.97 129.69 141.78 87.43 119.54 102.51 137.97 129.69" fill="#22ad00"/><polyline points="142.79 100.09 115.61 118.52 157.87 122.33" fill="#197200"/><polyline points="151.41 123.9 118.58 122.87 150.56 150.76" fill="#22ad00"/><polyline points="128.02 120.27 95.19 119.25 127.18 147.13" fill="#22ad00"/><polyline points="136.73 127.54 131.94 95.05 110.15 131.47" fill="#197200"/><polyline points="154.14 132.19 149.34 99.7 127.55 136.11" fill="#22ad00"/><polyline points="135.42 153.45 151.32 124.7 111.91 140.44" fill="#197200"/><polygon points="103.45 136.72 141.97 154.53 135.25 128.51 103.45 136.72" fill="#22ad00"/><polyline points="129.71 151.22 121.5 119.42 103.69 157.94" fill="#197200"/><polyline points="104.39 151.32 116.4 120.75 79.38 141.5" fill="#22ad00"/><polyline points="115.67 130.53 127.68 99.96 90.66 120.7" fill="#22ad00"/><polyline points="105.89 136.28 138.1 142.7 111.14 109.93" fill="#197200"/><polyline points="95.66 151.11 127.87 157.53 100.91 124.75" fill="#22ad00"/><polyline points="81.94 126.33 103.66 150.97 102.09 108.56" fill="#197200"/><polygon points="124.06 170.3 162.57 188.11 155.86 162.09 124.06 170.3" fill="#22ad00"/><polyline points="150.31 184.8 142.1 153 124.29 191.52" fill="#197200"/><polyline points="124.99 184.9 137 154.33 99.98 175.07" fill="#22ad00"/><polyline points="136.27 164.1 148.28 133.53 111.26 154.28" fill="#22ad00"/><polyline points="126.5 169.86 158.71 176.28 131.75 143.5" fill="#197200"/><polyline points="116.27 184.69 148.48 191.1 121.51 158.33" fill="#22ad00"/><polyline points="102.54 159.91 124.26 184.55 122.7 142.14" fill="#197200"/><polygon points="146 153.26 184.52 171.07 177.8 145.05 146 153.26" fill="#22ad00"/><polyline points="172.26 167.76 164.04 135.96 146.24 174.48" fill="#197200"/><polyline points="146.94 167.86 158.95 137.29 121.92 158.03" fill="#22ad00"/><polyline points="158.22 147.06 170.23 116.49 133.21 137.24" fill="#22ad00"/><polyline points="148.44 152.82 180.66 159.24 153.69 126.47" fill="#197200"/><polyline points="138.21 167.65 170.42 174.06 143.46 141.29" fill="#22ad00"/><polyline points="124.49 142.87 146.21 167.51 144.65 125.1" fill="#197200"/><polygon points="189.14 141.89 231.56 143.19 215.19 121.88 189.14 141.89" fill="#22ad00"/><polyline points="218.98 144.95 198.97 118.9 197.66 161.32" fill="#197200"/><polyline points="195.72 154.96 194.8 122.13 168.85 155.71" fill="#22ad00"/><polyline points="197.95 131.4 197.04 98.57 171.09 132.15" fill="#22ad00"/><polyline points="191.21 140.53 223.37 133.82 185.72 114.22" fill="#197200"/><polyline points="187.6 158.18 219.76 151.47 182.12 131.87" fill="#22ad00"/><polyline points="165.28 140.75 194.91 154.92 176.87 116.51" fill="#197200"/><polygon points="180.08 107.85 164.58 147.35 190.16 139.11 180.08 107.85" fill="#22ad00"/><polyline points="167.16 134.91 198.42 124.83 158.91 109.34" fill="#197200"/><polyline points="165.56 109.64 196.78 119.82 173.89 84.09" fill="#22ad00"/><polyline points="186.99 119.67 218.22 129.85 195.32 94.13" fill="#22ad00"/><polyline points="180.66 110.26 176.17 142.79 207.28 113.94" fill="#197200"/><polyline points="165.26 100.92 160.76 133.46 191.88 104.6" fill="#22ad00"/><polyline points="189.18 85.75 165.87 108.9 208.11 104.83" fill="#197200"/><polygon points="147.78 130.4 132.28 169.91 157.86 161.66 147.78 130.4" fill="#22ad00"/><polyline points="134.86 157.47 166.12 147.39 126.61 131.89" fill="#197200"/><polyline points="133.26 132.2 164.49 142.38 141.59 106.65" fill="#22ad00"/><polyline points="154.69 142.23 185.92 152.41 163.02 116.68" fill="#22ad00"/><polyline points="148.36 132.81 143.87 165.35 174.98 136.49" fill="#197200"/><polyline points="132.96 123.48 128.46 156.01 159.58 127.16" fill="#22ad00"/><polyline points="156.88 108.31 133.57 131.45 175.81 127.38" fill="#197200"/><polygon points="166.09 151.3 150.59 190.81 176.17 182.56 166.09 151.3" fill="#22ad00"/><polyline points="153.17 178.37 184.43 168.29 144.92 152.79" fill="#197200"/><polyline points="151.57 153.1 182.79 163.28 159.9 127.55" fill="#22ad00"/><polyline points="173 163.13 204.22 173.31 181.33 137.58" fill="#22ad00"/><polyline points="166.67 153.71 162.18 186.25 193.29 157.39" fill="#197200"/><polyline points="151.26 144.38 146.77 176.91 177.88 148.06" fill="#22ad00"/><polyline points="175.19 129.21 151.88 152.35 194.12 148.28" fill="#197200"/><polygon points="160.59 91.52 164.88 133.74 183.85 114.7 160.59 91.52" fill="#22ad00"/><polyline points="161.49 121.5 184.67 98.23 142.45 102.53" fill="#197200"/><polyline points="148.5 99.76 180.93 94.52 144.22 73.23" fill="#22ad00"/><polyline points="172.15 98.87 204.57 93.64 167.86 72.34" fill="#22ad00"/><polyline points="162.21 93.39 173.1 124.38 187.57 84.48" fill="#197200"/><polyline points="144.24 92.14 155.13 123.13 169.59 83.23" fill="#22ad00"/><polyline points="158.57 67.71 148.44 98.95 184.13 76" fill="#197200"/><polygon points="193.14 78.05 151.94 67.89 163.48 92.16 193.14 78.05" fill="#22ad00"/><polyline points="164.61 68.81 178.72 98.46 188.87 57.26" fill="#197200"/><polyline points="189.45 63.89 183.47 96.19 215.87 68.78" fill="#22ad00"/><polyline points="182.33 86.46 176.35 118.75 208.75 91.35" fill="#22ad00"/><polyline points="190.83 78.94 157.98 78.77 190.69 105.82" fill="#197200"/><polyline points="198.05 62.44 165.21 62.27 197.91 89.31" fill="#22ad00"/><polyline points="216.24 84.16 190.23 64.1 199.83 105.44" fill="#197200"/><polygon points="166.53 49 125.32 38.84 136.87 63.11 166.53 49" fill="#22ad00"/><polyline points="137.99 39.76 152.1 69.42 162.26 28.21" fill="#197200"/><polyline points="162.83 34.84 156.85 67.14 189.26 39.73" fill="#22ad00"/><polyline points="155.71 57.41 149.73 89.7 182.14 62.3" fill="#22ad00"/><polyline points="164.21 49.9 131.37 49.73 164.07 76.77" fill="#197200"/><polyline points="171.44 33.4 138.59 33.22 171.3 60.27" fill="#22ad00"/><polyline points="189.62 55.11 163.61 35.05 173.22 76.39" fill="#197200"/><polygon points="148.22 69.9 107.02 59.75 118.56 84.01 148.22 69.9" fill="#22ad00"/><polyline points="119.69 60.66 133.8 90.32 143.96 49.12" fill="#197200"/><polyline points="144.53 55.75 138.55 88.04 170.95 60.64" fill="#22ad00"/><polyline points="137.41 78.31 131.43 110.61 163.83 83.2" fill="#22ad00"/><polyline points="145.91 70.8 113.06 70.63 145.77 97.67" fill="#197200"/><polyline points="153.13 54.3 120.29 54.13 152.99 81.17" fill="#22ad00"/><polyline points="171.32 76.01 145.31 55.96 154.91 97.29" fill="#197200"/><polygon points="174.69 142.37 148.56 108.93 142.65 135.14 174.69 142.37" fill="#22ad00"/><polyline points="157.96 117.47 150.74 149.51 184.18 123.39" fill="#197200"/><polyline points="180.53 128.95 155.88 150.66 198.29 149.12" fill="#22ad00"/><polyline points="160.99 142.3 136.34 164.01 178.75 162.47" fill="#22ad00"/><polyline points="172.32 141.65 146.59 121.22 155.61 162.69" fill="#197200"/><polyline points="188.19 133.13 162.47 112.71 171.48 154.18" fill="#22ad00"/><polyline points="189.08 161.44 181.02 129.6 163.03 168.04" fill="#197200"/><polygon points="154.32 171.11 194.6 157.75 171.9 143.37 154.32 171.11" fill="#22ad00"/><polyline points="183.39 163.73 155.65 146.15 169 186.43" fill="#197200"/><polyline points="164.99 181.12 152.84 150.6 140.02 191.06" fill="#22ad00"/><polyline points="158.99 158.23 146.84 127.72 134.02 168.17" fill="#22ad00"/><polyline points="155.8 169.12 183.68 151.76 141.6 146.3" fill="#197200"/><polyline points="158.48 186.93 186.36 169.58 144.28 164.12" fill="#22ad00"/><polyline points="131.52 178.25 164.22 181.36 134.07 151.49" fill="#197200"/><polygon points="192.32 181.51 232.6 168.15 209.9 153.77 192.32 181.51" fill="#22ad00"/><polyline points="221.39 174.13 193.65 156.55 207 196.83" fill="#197200"/><polyline points="202.99 191.52 190.84 161.01 178.02 201.46" fill="#22ad00"/><polyline points="196.99 168.63 184.84 138.12 172.02 178.57" fill="#22ad00"/><polyline points="193.8 179.52 221.68 162.16 179.6 156.7" fill="#197200"/><polyline points="196.47 197.33 224.36 179.98 182.28 174.52" fill="#22ad00"/><polyline points="169.52 188.65 202.21 191.76 172.06 161.9" fill="#197200"/><polygon points="196.67 154.07 236.95 140.71 214.25 126.33 196.67 154.07" fill="#22ad00"/><polyline points="225.74 146.69 198 129.1 211.36 169.39" fill="#197200"/><polyline points="207.34 164.08 195.19 133.56 182.37 174.02" fill="#22ad00"/><polyline points="201.34 141.19 189.19 110.67 176.38 151.13" fill="#22ad00"/><polyline points="198.15 152.08 226.04 134.72 183.95 129.26" fill="#197200"/><polyline points="200.83 169.89 228.71 152.54 186.63 147.08" fill="#22ad00"/><polyline points="173.87 161.21 206.57 164.32 176.42 134.45" fill="#197200"/><polygon points="154.23 196.54 183.94 166.23 157.17 163.82 154.23 196.54" fill="#22ad00"/><polyline points="176.7 176.67 143.99 173.73 174.3 203.44" fill="#197200"/><polyline points="168.3 200.56 143.53 178.98 150.65 220.82" fill="#22ad00"/><polyline points="152.49 182.95 127.73 161.37 134.84 203.21" fill="#22ad00"/><polyline points="154.63 194.09 171.49 165.9 131.57 180.3" fill="#197200"/><polyline points="165.17 208.7 182.02 180.51 142.1 194.91" fill="#22ad00"/><polyline points="137.22 213.31 167.72 201.12 127.25 188.36" fill="#197200"/><polygon points="123.06 180.13 141.6 218.3 152.87 193.9 123.06 180.13" fill="#22ad00"/><polyline points="134.21 207.97 147.98 178.16 109.81 196.7" fill="#197200"/><polyline points="114.54 192.02 143.19 175.96 101.4 168.58" fill="#22ad00"/><polyline points="136.44 183.06 165.09 167 123.3 159.62" fill="#22ad00"/><polyline points="125.23 181.33 146.1 206.69 145.97 164.25" fill="#197200"/><polyline points="107.92 186.33 128.8 211.69 128.67 169.25" fill="#22ad00"/><polyline points="112.98 158.47 114.2 191.29 139.83 157.47" fill="#197200"/><polygon points="117.75 219.17 136.3 257.33 147.57 232.94 117.75 219.17" fill="#22ad00"/><polyline points="128.9 247.01 142.67 217.19 104.5 235.74" fill="#197200"/><polyline points="109.23 231.06 137.88 215 96.09 207.62" fill="#22ad00"/><polyline points="131.13 222.1 159.78 206.04 117.99 198.66" fill="#22ad00"/><polyline points="119.92 220.37 140.8 245.72 140.67 203.29" fill="#197200"/><polyline points="102.62 225.37 123.49 250.73 123.36 208.29" fill="#22ad00"/><polyline points="107.67 197.5 108.89 230.32 134.53 196.5" fill="#197200"/><polygon points="145.53 219.87 164.08 258.04 175.35 233.64 145.53 219.87" fill="#22ad00"/><polyline points="156.68 247.71 170.45 217.89 132.28 236.44" fill="#197200"/><polyline points="137.01 231.76 165.66 215.7 123.87 208.32" fill="#22ad00"/><polyline points="158.91 222.8 187.56 206.74 145.77 199.36" fill="#22ad00"/><polyline points="147.7 221.07 168.58 246.43 168.44 203.99" fill="#197200"/><polyline points="130.39 226.07 151.27 251.43 151.14 208.99" fill="#22ad00"/><polyline points="135.45 198.2 136.67 231.03 162.31 197.21" fill="#197200"/><polygon points="186.12 238.37 218.14 266.23 218.95 239.37 186.12 238.37" fill="#22ad00"/><polyline points="207.28 259.62 208.28 226.79 180.42 258.81" fill="#197200"/><polyline points="182.94 252.65 203.01 226.65 161.67 236.22" fill="#22ad00"/><polyline points="199.59 235.83 219.66 209.83 178.31 219.41" fill="#22ad00"/><polyline points="188.59 238.63 217.73 253.78 200.99 214.78" fill="#197200"/><polyline points="174.63 250 203.76 265.16 187.03 226.16" fill="#22ad00"/><polyline points="168.37 222.38 182.34 252.1 192.69 210.95" fill="#197200"/><polygon points="200.66 206.28 163.65 227.05 188.67 236.86 200.66 206.28" fill="#22ad00"/><polyline points="173.52 219.05 204.1 231.04 183.33 194.03" fill="#197200"/><polyline points="188.28 198.48 206.01 226.13 210.9 183.97" fill="#22ad00"/><polyline points="198.52 219.81 216.25 247.46 221.14 205.3" fill="#22ad00"/><polyline points="199.59 208.51 175.51 230.85 217.86 228.21" fill="#197200"/><polyline points="193.57 191.53 169.49 213.87 211.84 211.23" fill="#22ad00"/><polyline points="221.69 194.93 188.99 198.09 224.27 221.68" fill="#197200"/><polygon points="161.38 203.29 124.37 224.07 149.39 233.87 161.38 203.29" fill="#22ad00"/><polyline points="134.24 216.07 164.82 228.05 144.04 191.05" fill="#197200"/><polyline points="149 195.49 166.73 223.14 171.62 180.99" fill="#22ad00"/><polyline points="159.24 216.82 176.97 244.47 181.86 202.32" fill="#22ad00"/><polyline points="160.3 205.53 136.23 227.87 178.58 225.23" fill="#197200"/><polyline points="154.28 188.55 130.21 210.89 172.56 208.25" fill="#22ad00"/><polyline points="182.4 191.95 149.71 195.11 184.99 218.7" fill="#197200"/><polygon points="162.32 231.06 125.31 251.84 150.34 261.64 162.32 231.06" fill="#22ad00"/><polyline points="135.18 243.84 165.76 255.82 144.99 218.82" fill="#197200"/><polyline points="149.94 223.26 167.67 250.91 172.56 208.75" fill="#22ad00"/><polyline points="160.18 244.59 177.91 272.24 182.8 230.09" fill="#22ad00"/><polyline points="161.25 233.3 137.17 255.64 179.53 253" fill="#197200"/><polyline points="155.23 216.32 131.15 238.66 173.51 236.02" fill="#22ad00"/><polyline points="183.35 219.72 150.66 222.88 185.93 246.47" fill="#197200"/><polygon points="195.91 181.3 172.51 216.7 199.24 213.97 195.91 181.3" fill="#22ad00"/><polyline points="177.63 205.07 210.3 201.74 174.9 178.34" fill="#197200"/><polyline points="181.33 180.03 209.75 196.5 194.81 156.78" fill="#22ad00"/><polyline points="200.2 194.31 228.62 210.78 213.68 171.06" fill="#22ad00"/><polyline points="195.98 183.78 184.79 214.66 221.24 192.93" fill="#197200"/><polyline points="182.86 171.43 171.67 202.31 208.12 180.59" fill="#22ad00"/><polyline points="209.41 161.59 181.79 179.36 223.95 184.19" fill="#197200"/><polygon points="229.63 191.47 204.16 157.53 197.74 183.62 229.63 191.47" fill="#22ad00"/><polyline points="213.39 166.26 205.54 198.15 239.49 172.68" fill="#197200"/><polyline points="235.73 178.18 210.66 199.4 253.09 198.69" fill="#22ad00"/><polyline points="215.94 191.14 190.87 212.36 233.3 211.65" fill="#22ad00"/><polyline points="227.27 190.71 201.96 169.78 210.16 211.42" fill="#197200"/><polyline points="243.31 182.5 218 161.58 226.19 203.22" fill="#22ad00"/><polyline points="243.65 210.83 236.21 178.84 217.47 216.91" fill="#197200"/><polygon points="227.42 152.14 201.95 118.2 195.52 144.29 227.42 152.14" fill="#22ad00"/><polyline points="211.18 126.93 203.32 158.82 237.27 133.35" fill="#197200"/><polyline points="233.52 138.85 208.45 160.06 250.88 159.36" fill="#22ad00"/><polyline points="213.72 151.81 188.65 173.03 231.08 172.32" fill="#22ad00"/><polyline points="225.06 151.37 199.74 130.45 207.94 172.09" fill="#197200"/><polyline points="241.1 143.17 215.78 122.25 223.98 163.89" fill="#22ad00"/><polyline points="241.43 171.49 233.99 139.5 215.26 177.58" fill="#197200"/><polygon points="200.01 156.74 174.55 122.79 168.12 148.89 200.01 156.74" fill="#22ad00"/><polyline points="183.77 131.52 175.92 163.41 209.87 137.95" fill="#197200"/><polyline points="206.12 143.44 181.04 164.66 223.47 163.95" fill="#22ad00"/><polyline points="186.32 156.4 161.25 177.62 203.68 176.91" fill="#22ad00"/><polyline points="197.66 155.97 172.34 135.05 180.54 176.69" fill="#197200"/><polyline points="213.69 147.77 188.38 126.84 196.58 168.48" fill="#22ad00"/><polyline points="214.03 176.09 206.59 144.1 187.85 182.18" fill="#197200"/><polygon points="150.78 110.05 112.09 127.5 136.16 139.47 150.78 110.05" fill="#22ad00"/><polyline points="122.63 120.4 152.04 135.02 134.59 96.34" fill="#197200"/><polyline points="139.13 101.2 154.37 130.29 162.94 88.73" fill="#22ad00"/><polyline points="147.46 123.35 162.7 152.44 171.27 110.88" fill="#22ad00"/><polyline points="149.51 112.19 123.57 132.33 165.99 133.41" fill="#197200"/><polyline points="145 94.75 119.06 114.89 161.49 115.97" fill="#22ad00"/><polyline points="172.72 100.6 139.87 100.88 172.95 127.47" fill="#197200"/><polygon points="173.87 136.66 170.44 94.36 151.09 113 173.87 136.66" fill="#22ad00"/><polyline points="173.59 106.67 149.93 129.45 192.23 126.03" fill="#197200"/><polyline points="186.12 128.67 153.59 133.24 189.85 155.28" fill="#22ad00"/><polyline points="162.46 129.07 129.94 133.63 166.2 155.68" fill="#22ad00"/><polyline points="172.28 134.75 162.04 103.55 146.75 143.13" fill="#197200"/><polyline points="190.22 136.38 179.98 105.17 164.69 144.76" fill="#22ad00"/><polyline points="175.39 160.5 186.17 129.48 150.01 151.68" fill="#197200"/><polygon points="192.98 102.21 189.56 59.91 170.2 78.55 192.98 102.21" fill="#22ad00"/><polyline points="192.71 72.22 169.05 95 211.34 91.58" fill="#197200"/><polyline points="205.24 94.22 172.71 98.79 208.97 120.84" fill="#22ad00"/><polyline points="181.58 94.62 149.05 99.19 185.31 121.23" fill="#22ad00"/><polyline points="191.4 100.31 181.15 69.1 165.87 108.69" fill="#197200"/><polyline points="209.34 101.93 199.09 70.72 183.81 110.31" fill="#22ad00"/><polyline points="194.51 126.06 205.29 95.03 169.12 117.24" fill="#197200"/><polygon points="167.36 91.48 163.94 49.18 144.58 67.81 167.36 91.48" fill="#22ad00"/><polyline points="167.08 61.48 143.42 84.27 185.72 80.84" fill="#197200"/><polyline points="179.61 83.49 147.09 88.05 183.35 110.1" fill="#22ad00"/><polyline points="155.95 83.88 123.43 88.45 159.69 110.5" fill="#22ad00"/><polyline points="165.77 89.57 155.53 58.36 140.24 97.95" fill="#197200"/><polyline points="183.71 91.19 173.47 59.98 158.18 99.57" fill="#22ad00"/><polyline points="168.88 115.32 179.66 84.29 143.5 106.5" fill="#197200"/><polygon points="198.55 142.78 176.15 106.73 167.46 132.16 198.55 142.78" fill="#22ad00"/><polyline points="184.58 116.23 173.96 147.32 210.01 124.92" fill="#197200"/><polyline points="205.79 130.06 178.95 149 221.28 152.02" fill="#22ad00"/><polyline points="184.93 141.24 158.1 160.18 200.43 163.2" fill="#22ad00"/><polyline points="196.26 141.81 172.88 118.74 177.4 160.94" fill="#197200"/><polyline points="212.96 135.04 189.57 111.98 194.09 154.17" fill="#22ad00"/><polyline points="210.81 163.28 206.2 130.76 184.2 167.05" fill="#197200"/><polygon points="175.21 169.17 216.69 160.21 195.66 143.47 175.21 169.17" fill="#22ad00"/><polyline points="204.91 164.94 179.21 144.49 188.17 185.97" fill="#197200"/><polyline points="184.75 180.27 175.94 148.63 158.86 187.47" fill="#22ad00"/><polyline points="181.24 156.87 172.43 125.22 155.35 164.07" fill="#22ad00"/><polyline points="176.9 167.35 206.48 153.08 165.22 143.14" fill="#197200"/><polyline points="177.65 185.35 207.24 171.08 165.98 161.14" fill="#22ad00"/><polyline points="151.78 173.82 183.95 180.42 157.18 147.5" fill="#197200"/><polygon points="211.88 183.58 253.36 174.62 232.33 157.88 211.88 183.58" fill="#22ad00"/><polyline points="241.57 179.36 215.87 158.9 224.84 200.38" fill="#197200"/><polyline points="221.41 194.68 212.6 163.04 195.52 201.89" fill="#22ad00"/><polyline points="217.9 171.28 209.09 139.64 192.01 178.49" fill="#22ad00"/><polyline points="213.56 181.76 243.15 167.49 201.89 157.55" fill="#197200"/><polyline points="214.31 199.76 243.9 185.49 202.64 175.55" fill="#22ad00"/><polyline points="188.44 188.24 220.62 194.83 193.84 161.91" fill="#197200"/><polygon points="219.15 156.76 260.63 147.8 239.6 131.07 219.15 156.76" fill="#22ad00"/><polyline points="248.84 152.54 223.14 132.09 232.1 173.57" fill="#197200"/><polyline points="228.68 167.86 219.87 136.22 202.79 175.07" fill="#22ad00"/><polyline points="225.17 144.46 216.36 112.82 199.28 151.67" fill="#22ad00"/><polyline points="220.83 154.94 250.41 140.68 209.16 130.74" fill="#197200"/><polyline points="221.58 172.94 251.17 158.68 209.91 148.74" fill="#22ad00"/><polyline points="195.71 161.42 227.89 168.02 201.11 135.09" fill="#197200"/><polygon points="246.75 121.72 281.41 97.23 255.5 90.06 246.75 121.72" fill="#22ad00"/><polyline points="272.42 106.2 240.76 97.44 265.25 132.1" fill="#197200"/><polyline points="259.87 128.19 239.37 102.53 238.87 144.96" fill="#22ad00"/><polyline points="247.47 108.04 226.98 82.37 226.47 124.81" fill="#22ad00"/><polyline points="247.58 119.38 269.22 94.67 227.37 101.68" fill="#197200"/><polyline points="255.33 135.65 276.96 110.94 235.11 117.94" fill="#22ad00"/><polyline points="227.01 135.17 259.2 128.65 221.67 108.84" fill="#197200"/><polygon points="219.02 99.99 230.42 140.86 245.88 118.88 219.02 99.99" fill="#22ad00"/><polyline points="225 129.38 243.89 102.51 203.01 113.92" fill="#197200"/><polyline points="208.51 110.16 239.57 99.5 199.78 84.75" fill="#22ad00"/><polyline points="231.66 105.27 262.72 94.61 222.93 79.86" fill="#22ad00"/><polyline points="220.94 101.56 236.93 130.25 244.41 88.47" fill="#197200"/><polyline points="203.02 103.38 219.01 132.07 226.49 90.29" fill="#22ad00"/><polyline points="212.99 76.87 208.31 109.38 239.59 80.7" fill="#197200"/><polygon points="206.8 137.44 218.21 178.32 233.67 156.34 206.8 137.44" fill="#22ad00"/><polyline points="212.78 166.83 231.67 139.97 190.8 151.37" fill="#197200"/><polyline points="196.29 147.61 227.35 136.95 187.56 122.2" fill="#22ad00"/><polyline points="219.44 142.72 250.51 132.06 210.72 117.31" fill="#22ad00"/><polyline points="208.72 139.01 224.72 167.7 232.19 125.93" fill="#197200"/><polyline points="190.8 140.83 206.79 169.52 214.27 127.75" fill="#22ad00"/><polyline points="200.77 114.32 196.09 146.83 227.37 118.15" fill="#197200"/><polygon points="234 143.11 245.41 183.99 260.87 162 234 143.11" fill="#22ad00"/><polyline points="239.98 172.5 258.88 145.63 218 157.04" fill="#197200"/><polyline points="223.49 153.28 254.56 142.62 214.76 127.87" fill="#22ad00"/><polyline points="246.64 148.39 277.71 137.73 237.92 122.98" fill="#22ad00"/><polyline points="235.92 144.68 251.92 173.37 259.39 131.6" fill="#197200"/><polyline points="218 146.5 233.99 175.19 241.47 133.41" fill="#22ad00"/><polyline points="227.97 119.99 223.29 152.5 254.57 123.82" fill="#197200"/><polygon points="193.63 98.68 222.47 129.8 226.16 103.19 193.63 98.68" fill="#22ad00"/><polyline points="212.39 122.08 216.9 89.54 185.77 118.39" fill="#197200"/><polyline points="188.94 112.53 211.68 88.83 169.55 93.93" fill="#22ad00"/><polyline points="207.28 97.59 230.03 73.89 187.89 78.99" fill="#22ad00"/><polyline points="196.05 99.2 223.4 117.39 210.94 76.82" fill="#197200"/><polyline points="180.95 109.02 208.29 127.21 195.83 86.64" fill="#22ad00"/><polyline points="177.69 80.88 188.4 111.93 203.09 72.12" fill="#197200"/><polygon points="211.51 68.33 172.5 85.02 196.32 97.45 211.51 68.33" fill="#22ad00"/><polyline points="183.17 78.12 212.29 93.31 195.59 54.3" fill="#197200"/><polyline points="200.04 59.25 214.71 88.63 224.09 47.25" fill="#22ad00"/><polyline points="207.94 81.55 222.61 110.94 231.99 69.55" fill="#22ad00"/><polyline points="210.21 70.44 183.88 90.07 226.27 91.98" fill="#197200"/><polyline points="206.04 52.91 179.71 72.54 222.11 74.45" fill="#22ad00"/><polyline points="233.64 59.3 200.79 58.94 233.34 86.17" fill="#197200"/><polygon points="172.78 61.15 133.76 77.84 157.59 90.27 172.78 61.15" fill="#22ad00"/><polyline points="144.43 70.95 173.55 86.14 156.86 47.12" fill="#197200"/><polyline points="161.31 52.07 175.97 81.46 185.35 40.07" fill="#22ad00"/><polyline points="169.2 74.38 183.87 103.76 193.25 62.38" fill="#22ad00"/><polyline points="171.47 63.26 145.14 82.89 187.53 84.8" fill="#197200"/><polyline points="167.31 45.73 140.98 65.37 183.37 67.28" fill="#22ad00"/><polyline points="194.9 52.13 162.06 51.77 194.6 79" fill="#197200"/><polygon points="170.74 88.86 131.72 105.55 155.55 117.98 170.74 88.86" fill="#22ad00"/><polyline points="142.39 98.66 171.51 113.85 154.82 74.83" fill="#197200"/><polyline points="159.27 79.78 173.94 109.17 183.32 67.78" fill="#22ad00"/><polyline points="167.17 102.09 181.84 131.47 191.21 90.09" fill="#22ad00"/><polyline points="169.44 90.97 143.11 110.6 185.5 112.51" fill="#197200"/><polyline points="165.27 73.44 138.94 93.08 181.34 94.99" fill="#22ad00"/><polyline points="192.86 79.84 160.02 79.48 192.57 106.71" fill="#197200"/><polygon points="166.86 140.83 126.1 129.01 136.65 153.72 166.86 140.83" fill="#22ad00"/><polyline points="138.73 130.44 151.62 160.65 163.44 119.89" fill="#197200"/><polyline points="163.75 126.54 156.46 158.56 189.95 132.5" fill="#22ad00"/><polyline points="155.71 148.79 148.43 180.82 181.92 154.76" fill="#22ad00"/><polyline points="164.51 141.64 131.7 140.13 163.28 168.48" fill="#197200"/><polyline points="172.4 125.44 139.59 123.93 171.17 152.28" fill="#22ad00"/><polyline points="189.69 147.88 164.52 126.78 172.43 168.47" fill="#197200"/><polygon points="167.16 176.06 192.01 141.66 165.18 143.28 167.16 176.06" fill="#22ad00"/><polyline points="186.41 153.06 153.63 155.04 188.03 179.89" fill="#197200"/><polyline points="181.67 177.93 153.96 160.3 167.24 200.6" fill="#22ad00"/><polyline points="163.41 162.88 135.71 145.25 148.98 185.55" fill="#22ad00"/><polyline points="167.19 173.58 179.65 143.19 142.33 163.39" fill="#197200"/><polyline points="179.79 186.46 192.25 156.07 154.93 176.26" fill="#22ad00"/><polyline points="152.85 195.19 181.18 178.58 139.26 172.01" fill="#197200"/><polygon points="204.06 162.26 228.91 127.85 202.08 129.47 204.06 162.26" fill="#22ad00"/><polyline points="223.31 139.26 190.53 141.24 224.93 166.08" fill="#197200"/><polyline points="218.57 164.13 190.86 146.5 204.14 186.8" fill="#22ad00"/><polyline points="200.31 149.08 172.6 131.45 185.88 171.75" fill="#22ad00"/><polyline points="204.09 159.78 216.55 129.39 179.23 149.59" fill="#197200"/><polyline points="216.69 172.66 229.15 142.26 191.82 162.46" fill="#22ad00"/><polyline points="189.75 181.39 218.08 164.78 176.16 158.2" fill="#197200"/><polygon points="191.53 137.46 216.38 103.05 189.55 104.67 191.53 137.46" fill="#22ad00"/><polyline points="210.78 114.46 178 116.44 212.4 141.28" fill="#197200"/><polyline points="206.04 139.33 178.33 121.7 191.61 162" fill="#22ad00"/><polyline points="187.78 124.28 160.07 106.65 173.35 146.95" fill="#22ad00"/><polyline points="191.56 134.98 204.02 104.59 166.7 124.78" fill="#197200"/><polyline points="204.16 147.85 216.62 117.46 179.3 137.66" fill="#22ad00"/><polyline points="177.22 156.59 205.55 139.98 163.63 133.4" fill="#197200"/><polygon points="181.97 196.73 188.32 154.77 165.21 168.48 181.97 196.73" fill="#22ad00"/><polyline points="188.57 167.47 160.32 184.23 202.28 190.58" fill="#197200"/><polyline points="195.73 191.76 163.02 188.75 193.27 218.52" fill="#22ad00"/><polyline points="172.61 186.73 139.9 183.72 170.15 213.49" fill="#22ad00"/><polyline points="180.86 194.51 178.03 161.78 154.09 196.82" fill="#197200"/><polyline points="197.96 200.19 195.13 167.47 171.19 202.51" fill="#22ad00"/><polyline points="178 220.29 195.59 192.55 155.31 205.89" fill="#197200"/><polygon points="147.09 201.67 184.47 221.77 179.33 195.39 147.09 201.67" fill="#22ad00"/><polyline points="172.42 217.72 166.14 185.49 146.05 222.86" fill="#197200"/><polyline points="147.14 216.3 160.97 186.51 122.77 204.98" fill="#22ad00"/><polyline points="159.66 196.22 173.49 166.43 135.28 184.9" fill="#22ad00"/><polyline points="149.55 201.37 181.32 209.72 156.38 175.38" fill="#197200"/><polyline points="138.45 215.56 170.21 223.9 145.27 189.57" fill="#22ad00"/><polyline points="126.24 190 146.44 215.9 147.43 173.48" fill="#197200"/><polygon points="165.63 236.43 203.01 256.52 197.87 230.15 165.63 236.43" fill="#22ad00"/><polyline points="190.97 252.48 184.69 220.24 164.59 257.62" fill="#197200"/><polyline points="165.69 251.06 179.52 221.27 141.31 239.74" fill="#22ad00"/><polyline points="178.2 230.97 192.03 201.19 153.83 219.66" fill="#22ad00"/><polyline points="168.1 236.13 199.86 244.48 174.92 210.14" fill="#197200"/><polyline points="156.99 250.32 188.76 258.66 163.82 224.33" fill="#22ad00"/><polyline points="144.78 224.76 164.98 250.66 165.98 208.23" fill="#197200"/><polygon points="188.57 220.74 225.94 240.84 220.81 214.46 188.57 220.74" fill="#22ad00"/><polyline points="213.9 236.79 207.62 204.56 187.52 241.93" fill="#197200"/><polyline points="188.62 235.37 202.45 205.58 164.25 224.05" fill="#22ad00"/><polyline points="201.13 215.29 214.97 185.5 176.76 203.97" fill="#22ad00"/><polyline points="191.03 220.45 222.8 228.79 197.86 194.45" fill="#197200"/><polyline points="179.92 234.63 211.69 242.97 186.75 208.64" fill="#22ad00"/><polyline points="167.72 209.07 187.91 234.97 188.91 192.55" fill="#197200"/><polygon points="232.31 211.99 274.57 215.84 259.52 193.58 232.31 211.99" fill="#22ad00"/><polyline points="261.91 216.84 243.51 189.63 239.65 231.9" fill="#197200"/><polyline points="238.09 225.43 239.15 192.6 211.23 224.56" fill="#22ad00"/><polyline points="241.74 202.05 242.8 169.22 214.88 201.18" fill="#22ad00"/><polyline points="234.46 210.75 266.96 205.99 230.57 184.16" fill="#197200"/><polyline points="229.8 228.15 262.3 223.39 225.9 201.56" fill="#22ad00"/><polyline points="208.56 209.41 237.28 225.34 221.59 185.91" fill="#197200"/><polygon points="225.32 177.46 207.47 215.96 233.49 209.27 225.32 177.46" fill="#22ad00"/><polyline points="210.79 203.7 242.6 195.52 204.1 177.67" fill="#197200"/><polyline points="210.72 178.38 241.27 190.42 220.57 153.38" fill="#22ad00"/><polyline points="231.5 189.68 262.06 201.73 241.36 164.68" fill="#22ad00"/><polyline points="225.76 179.9 219.31 212.11 252.1 185.18" fill="#197200"/><polyline points="210.94 169.65 204.49 201.86 237.29 174.93" fill="#22ad00"/><polyline points="235.73 155.96 211.07 177.65 253.48 176.13" fill="#197200"/><polygon points="191.72 198.03 173.87 236.53 199.89 229.84 191.72 198.03" fill="#22ad00"/><polyline points="177.19 224.27 209 216.09 170.5 198.24" fill="#197200"/><polyline points="177.12 198.95 207.67 210.99 186.97 173.95" fill="#22ad00"/><polyline points="197.9 210.25 228.46 222.29 207.76 185.25" fill="#22ad00"/><polyline points="192.16 200.47 185.71 232.68 218.51 205.75" fill="#197200"/><polyline points="177.34 190.22 170.89 222.43 203.69 195.5" fill="#22ad00"/><polyline points="202.13 176.52 177.47 198.22 219.88 196.7" fill="#197200"/><polygon points="208.73 219.99 190.88 258.49 216.91 251.8 208.73 219.99" fill="#22ad00"/><polyline points="194.21 246.23 226.02 238.05 187.51 220.21" fill="#197200"/><polyline points="194.13 220.91 224.69 232.95 203.99 195.91" fill="#22ad00"/><polyline points="214.92 232.22 245.48 244.26 224.77 207.21" fill="#22ad00"/><polyline points="209.17 222.43 202.72 254.64 235.52 227.71" fill="#197200"/><polyline points="194.36 212.19 187.91 244.39 220.71 217.46" fill="#22ad00"/><polyline points="219.15 198.49 194.49 220.18 236.9 218.66" fill="#197200"/><polygon points="206.85 159.98 208.59 202.38 228.67 184.53 206.85 159.98" fill="#22ad00"/><polyline points="205.94 189.96 230.48 168.14 188.08 169.88" fill="#197200"/><polyline points="194.28 167.48 226.97 164.21 191.61 140.74" fill="#22ad00"/><polyline points="217.94 168.02 250.62 164.75 215.26 141.28" fill="#22ad00"/><polyline points="208.35 161.95 217.36 193.54 234.2 154.59" fill="#197200"/><polyline points="190.49 159.62 199.49 191.21 216.34 152.26" fill="#22ad00"/><polyline points="206.27 136.1 194.27 166.67 231.28 145.92" fill="#197200"/><polygon points="240.15 148.5 199.63 135.88 209.69 160.8 240.15 148.5" fill="#22ad00"/><polyline points="212.23 137.56 224.52 168.01 237.14 127.5" fill="#197200"/><polyline points="237.32 134.15 229.4 166.03 263.4 140.62" fill="#22ad00"/><polyline points="228.85 156.24 220.94 188.12 254.93 162.72" fill="#22ad00"/><polyline points="237.79 149.26 205.01 147.11 236.03 176.07" fill="#197200"/><polyline points="245.99 133.22 213.22 131.07 244.24 160.03" fill="#22ad00"/><polyline points="262.84 155.99 238.08 134.4 245.18 176.24" fill="#197200"/><polygon points="215.34 117.9 174.82 105.28 184.88 130.2 215.34 117.9" fill="#22ad00"/><polyline points="187.41 106.96 199.71 137.41 212.33 96.9" fill="#197200"/><polyline points="212.5 103.55 204.59 135.43 238.58 110.02" fill="#22ad00"/><polyline points="204.03 125.65 196.12 157.52 230.12 132.12" fill="#22ad00"/><polyline points="212.97 118.66 180.2 116.51 211.21 145.48" fill="#197200"/><polyline points="221.18 102.62 188.4 100.47 219.42 129.44" fill="#22ad00"/><polyline points="238.02 125.39 213.27 103.81 220.36 145.65" fill="#add3a1"/><polygon points="195.8 137.66 155.29 125.05 165.35 149.96 195.8 137.66" fill="#22ad00"/><polyline points="167.88 126.72 180.18 157.18 192.8 116.66" fill="#197200"/><polyline points="192.97 123.31 185.06 155.19 219.05 129.79" fill="#22ad00"/><polyline points="184.5 145.41 176.59 177.29 210.58 151.88" fill="#22ad00"/><polyline points="193.44 138.42 160.67 136.27 191.68 165.24" fill="#197200"/><polyline points="201.65 122.39 168.87 120.24 199.89 149.2" fill="#22ad00"/><polyline points="218.49 145.16 193.74 123.57 200.83 165.41" fill="#197200"/><polygon points="201.44 185.51 226.06 150.95 199.25 152.74 201.44 185.51" fill="#22ad00"/><polyline points="220.54 162.39 187.77 164.58 222.33 189.2" fill="#197200"/><polyline points="215.96 187.29 188.14 169.83 201.68 210.05" fill="#22ad00"/><polyline points="197.6 172.36 169.78 154.9 183.32 195.12" fill="#22ad00"/><polyline points="201.45 183.03 213.71 152.56 176.52 173" fill="#197200"/><polyline points="214.13 195.82 226.39 165.35 189.2 185.79" fill="#22ad00"/><polyline points="187.25 204.73 215.47 187.94 173.51 181.63" fill="#197200"/><polygon points="168.09 174.16 192.35 208.97 199.69 183.12 168.09 174.16" fill="#22ad00"/><polyline points="183.43 199.93 192.4 168.33 157.58 192.59" fill="#197200"/><polyline points="161.53 187.23 187.32 166.9 144.89 166.12" fill="#22ad00"/><polyline points="181.76 174.97 207.56 154.64 165.13 153.86" fill="#22ad00"/><polyline points="170.42 175.01 194.99 196.8 188.25 154.9" fill="#add3a1"/><polyline points="154.1 182.64 178.67 204.44 171.94 162.54" fill="#22ad00"/><polyline points="154.76 154.33 161.07 186.56 181.13 149.16" fill="#197200"/><polygon points="168.93 213.54 193.19 248.36 200.52 222.51 168.93 213.54" fill="#22ad00"/><polyline points="184.27 239.31 193.24 207.71 158.42 231.98" fill="#197200"/><polyline points="162.36 226.62 188.16 206.29 145.73 205.51" fill="#22ad00"/><polyline points="182.6 214.36 208.4 194.03 165.97 193.25" fill="#22ad00"/><polyline points="171.26 214.39 195.83 236.19 189.09 194.29" fill="#197200"/><polyline points="154.94 222.03 179.51 243.82 172.77 201.93" fill="#22ad00"/><polyline points="155.6 193.71 161.91 225.94 181.97 188.54" fill="#197200"/><polygon points="196.47 209.91 220.74 244.73 228.07 218.87 196.47 209.91" fill="#22ad00"/><polyline points="211.82 235.68 220.78 204.08 185.97 228.34" fill="#197200"/><polyline points="189.91 222.98 215.71 202.66 173.28 201.88" fill="#22ad00"/><polyline points="210.15 210.72 235.95 190.4 193.52 189.62" fill="#22ad00"/><polyline points="198.8 210.76 223.37 232.56 216.64 190.66" fill="#197200"/><polyline points="182.49 218.4 207.06 240.19 200.32 198.29" fill="#22ad00"/><polyline points="183.14 190.08 189.46 222.31 209.52 184.91" fill="#197200"/><polygon points="143.69 181.31 181.19 201.16 175.88 174.82 143.69 181.31" fill="#22ad00"/><polyline points="169.12 197.2 162.64 165 142.78 202.5" fill="#197200"/><polyline points="143.83 195.93 157.47 166.05 119.39 184.77" fill="#22ad00"/><polyline points="156.22 175.77 169.86 145.89 131.77 164.61" fill="#22ad00"/><polyline points="146.15 180.99 177.97 189.13 152.81 154.96" fill="#197200"/><polyline points="135.13 195.25 166.95 203.39 141.79 169.22" fill="#22ad00"/><polyline points="122.76 169.77 143.13 195.54 143.85 153.11" fill="#197200"/><polygon points="150.55 146.75 119.23 175.39 145.82 179.25 150.55 146.75" fill="#22ad00"/><polyline points="127.02 165.36 159.53 170.08 130.89 138.76" fill="#197200"/><polyline points="136.72 141.97 160.27 164.86 155.45 122.7" fill="#22ad00"/><polyline points="151.54 160.41 175.09 183.31 170.27 141.15" fill="#22ad00"/><polyline points="150.01 149.17 131.64 176.4 172.29 164.2" fill="#197200"/><polyline points="140.29 134 121.92 161.23 162.57 149.03" fill="#22ad00"/><polyline points="168.45 130.93 137.33 141.43 177.04 156.39" fill="#197200"/><polygon points="111.61 152.77 80.3 181.41 106.89 185.27 111.61 152.77" fill="#22ad00"/><polyline points="88.09 171.38 120.59 176.1 91.95 144.78" fill="#197200"/><polyline points="97.79 147.99 121.34 170.88 116.52 128.72" fill="#22ad00"/><polyline points="112.61 166.43 136.16 189.33 131.34 147.17" fill="#22ad00"/><polyline points="111.08 155.19 92.71 182.42 133.35 170.22" fill="#197200"/><polyline points="101.36 140.02 82.99 167.25 123.64 155.05" fill="#22ad00"/><polyline points="129.51 136.95 98.4 147.45 138.11 162.41" fill="#197200"/><polygon points="118.84 179.6 87.53 208.24 114.12 212.1 118.84 179.6" fill="#22ad00"/><polyline points="95.32 198.21 127.83 202.93 99.19 171.61" fill="#197200"/><polyline points="105.02 174.81 128.57 197.71 123.75 155.55" fill="#22ad00"/><polyline points="119.84 193.26 143.39 216.16 138.57 173.99" fill="#22ad00"/><polyline points="118.31 182.02 99.94 209.25 140.59 197.05" fill="#197200"/><polyline points="108.59 166.85 90.22 194.08 130.87 181.88" fill="#22ad00"/><polyline points="136.75 163.77 105.63 174.28 145.34 189.23" fill="#197200"/><polygon points="112.66 223.78 95.05 262.39 121.04 255.54 112.66 223.78" fill="#22ad00"/><polyline points="98.3 250.11 130.05 241.73 91.44 224.13" fill="#197200"/><polyline points="98.06 224.79 128.69 236.64 107.75 199.73" fill="#22ad00"/><polyline points="118.92 235.96 149.55 247.81 128.61 210.9" fill="#22ad00"/><polyline points="113.11 226.22 106.87 258.46 139.49 231.32" fill="#197200"/><polyline points="98.23 216.07 91.99 248.31 124.61 221.17" fill="#22ad00"/><polyline points="122.93 202.21 98.41 224.06 140.81 222.27" fill="#197200"/><polygon points="147.56 228.58 117.11 199.02 114.83 225.79 147.56 228.58" fill="#22ad00"/><polyline points="127.59 206.2 124.8 238.93 154.36 208.49" fill="#197200"/><polyline points="151.51 214.5 130.05 239.36 171.85 232.06" fill="#22ad00"/><polyline points="133.97 230.38 112.51 255.25 154.32 247.94" fill="#22ad00"/><polyline points="145.1 228.19 116.84 211.47 131.42 251.32" fill="#197200"/><polyline points="159.67 217.59 131.41 200.87 145.99 240.72" fill="#22ad00"/><polyline points="164.41 245.51 152.08 215.07 139.5 255.6" fill="#197200"/><polygon points="139.24 190.07 108.8 160.51 106.52 187.28 139.24 190.07" fill="#22ad00"/><polyline points="119.27 167.69 116.48 200.42 146.05 169.98" fill="#197200"/><polyline points="143.2 175.99 121.74 200.85 163.54 193.55" fill="#add3a1"/><polyline points="125.66 191.88 104.2 216.74 146 209.44" fill="#22ad00"/><polyline points="136.79 189.68 108.52 172.96 123.11 212.81" fill="#197200"/><polyline points="151.36 179.08 123.09 162.36 137.67 202.21" fill="#22ad00"/><polyline points="156.1 207.01 143.77 176.56 131.19 217.09" fill="#197200"/><polygon points="112.89 198.88 82.45 169.31 80.16 196.09 112.89 198.88" fill="#22ad00"/><polyline points="92.92 176.5 90.13 209.23 119.7 178.78" fill="#197200"/><polyline points="116.84 184.79 95.38 209.66 137.19 202.35" fill="#22ad00"/><polyline points="99.31 200.68 77.85 225.54 119.65 218.24" fill="#22ad00"/><polyline points="110.44 198.49 82.17 181.76 96.75 221.62" fill="#197200"/><polyline points="125 187.89 96.74 171.16 111.32 211.02" fill="#22ad00"/><polyline points="129.75 215.81 117.41 185.37 104.84 225.9" fill="#add3a1"/><polygon points="170.15 216.92 129.55 204.56 139.78 229.42 170.15 216.92" fill="#22ad00"/><polyline points="142.16 206.16 154.65 236.53 167.01 195.94" fill="#197200"/><polyline points="167.22 202.59 159.52 234.52 193.35 208.9" fill="#22ad00"/><polyline points="158.9 224.74 151.19 256.67 185.02 231.04" fill="#22ad00"/><polyline points="167.79 217.7 135.01 215.76 166.21 244.52" fill="#197200"/><polyline points="175.9 201.6 143.11 199.67 174.31 228.43" fill="#22ad00"/><polyline points="192.89 224.27 167.99 202.84 175.35 244.63" fill="#197200"/><polygon points="169.99 252.15 195.28 218.08 168.44 219.34 169.99 252.15" fill="#22ad00"/><polyline points="189.54 229.41 156.73 230.96 190.81 256.25" fill="#197200"/><polyline points="184.47 254.22 157 236.22 169.75 276.69" fill="#22ad00"/><polyline points="166.41 238.93 138.94 220.93 151.69 261.4" fill="#22ad00"/><polyline points="170.05 249.67 182.91 219.45 145.32 239.15" fill="#add3a1"/><polyline points="182.48 262.71 195.34 232.49 157.75 252.2" fill="#22ad00"/><polyline points="155.42 271.09 183.98 254.86 142.14 247.73" fill="#197200"/><polygon points="207.06 238.84 232.36 204.76 205.52 206.03 207.06 238.84" fill="#22ad00"/><polyline points="226.62 216.09 193.81 217.64 227.88 242.94" fill="#197200"/><polyline points="221.55 240.9 194.07 222.9 206.82 263.38" fill="#22ad00"/><polyline points="203.49 225.61 176.02 207.61 188.76 248.09" fill="#22ad00"/><polyline points="207.13 236.35 219.99 206.13 182.4 225.84" fill="#197200"/><polyline points="219.56 249.4 232.41 219.18 194.83 238.88" fill="#22ad00"/><polyline points="192.5 257.78 221.05 241.54 179.22 234.41" fill="#197200"/><polygon points="194.86 213.87 220.16 179.8 193.32 181.06 194.86 213.87" fill="#22ad00"/><polyline points="214.42 191.13 181.61 192.68 215.68 217.97" fill="#197200"/><polyline points="209.35 215.94 181.87 197.94 194.62 238.42" fill="#22ad00"/><polyline points="191.29 200.65 163.81 182.65 176.56 223.13" fill="#22ad00"/><polyline points="194.93 211.39 207.78 181.17 170.2 200.88" fill="#add3a1"/><polyline points="207.36 224.44 220.21 194.21 182.63 213.92" fill="#22ad00"/><polyline points="180.3 232.81 208.85 216.58 167.02 209.45" fill="#197200"/><polygon points="113.86 167.35 132.32 205.57 143.65 181.2 113.86 167.35" fill="#22ad00"/><polyline points="124.94 195.22 138.79 165.44 100.57 183.9" fill="#197200"/><polyline points="105.32 179.23 134 163.24 92.23 155.75" fill="#22ad00"/><polyline points="127.24 170.32 155.93 154.33 114.16 146.85" fill="#22ad00"/><polyline points="116.03 168.56 136.84 193.97 136.82 151.53" fill="#197200"/><polyline points="98.71 173.52 119.53 198.93 119.5 156.49" fill="#22ad00"/><polyline points="103.84 145.67 104.98 178.49 130.7 144.74" fill="#197200"/><polygon points="139.86 143.58 97.67 148.1 116.8 166.97 139.86 143.58" fill="#22ad00"/><polyline points="109.89 144.64 133.28 167.7 128.75 125.5" fill="#197200"/><polyline points="131.56 131.54 136.96 163.93 158.06 127.11" fill="#22ad00"/><polyline points="132.57 155.18 137.97 187.57 159.07 150.75" fill="#22ad00"/><polyline points="137.99 145.21 107.06 156.27 147.04 170.52" fill="#197200"/><polyline points="139.15 127.24 108.22 138.29 148.19 152.54" fill="#22ad00"/><polyline points="163.66 141.44 132.36 131.47 155.5 167.04" fill="#197200"/><polygon points="104.93 125.36 62.73 129.88 81.87 148.75 104.93 125.36" fill="#22ad00"/><polyline points="74.96 126.42 98.34 149.48 93.82 107.28" fill="#197200"/><polyline points="96.63 113.32 102.03 145.72 123.13 108.9" fill="#22ad00"/><polyline points="97.64 136.96 103.04 169.36 124.14 132.54" fill="#22ad00"/><polyline points="103.06 127 72.13 138.05 112.11 152.31" fill="#197200"/><polyline points="104.22 109.02 73.29 120.07 113.26 134.33" fill="#22ad00"/><polyline points="128.72 123.22 97.43 113.25 120.57 148.83" fill="#197200"/><polygon points="94.86 151.26 52.67 155.78 71.8 174.65 94.86 151.26" fill="#22ad00"/><polyline points="64.89 152.32 88.28 175.38 83.75 133.18" fill="#197200"/><polyline points="86.56 139.22 91.96 171.61 113.06 134.79" fill="#22ad00"/><polyline points="87.57 162.86 92.97 195.25 114.07 158.43" fill="#22ad00"/><polyline points="92.99 152.9 62.06 163.95 102.04 178.2" fill="#197200"/><polyline points="94.15 134.92 63.22 145.97 103.19 160.22" fill="#22ad00"/><polyline points="118.66 149.12 87.36 139.15 110.5 174.72" fill="#197200"/><polygon points="145.33 118.75 109.88 142.08 135.53 150.1 145.33 118.75" fill="#22ad00"/><polyline points="119.16 133.4 150.51 143.21 127.19 107.75" fill="#197200"/><polyline points="132.44 111.84 152.07 138.17 153.98 95.78" fill="#22ad00"/><polyline points="144.16 132.4 163.79 158.73 165.7 116.34" fill="#22ad00"/><polyline points="144.42 121.06 121.98 145.04 164.04 139.42" fill="#197200"/><polyline points="137.22 104.54 114.78 128.52 156.84 122.91" fill="#22ad00"/><polyline points="165.51 105.96 133.12 111.41 169.97 132.46" fill="#197200"/><polygon points="172.33 141.39 162.28 100.16 146.1 121.61 172.33 141.39" fill="#22ad00"/><polyline points="167.33 111.81 147.55 138.04 188.78 128" fill="#197200"/><polyline points="183.17 131.57 151.77 141.2 191.05 157.26" fill="#22ad00"/><polyline points="159.87 135.69 128.47 145.31 167.75 161.38" fill="#22ad00"/><polyline points="170.46 139.75 155.43 110.55 146.57 152.05" fill="#add3a1"/><polyline points="188.43 138.53 173.4 109.33 164.54 150.83" fill="#22ad00"/><polyline points="177.59 164.69 183.35 132.36 151.13 159.98" fill="#197200"/><polygon points="185.78 104.36 175.74 63.13 159.56 84.58 185.78 104.36" fill="#22ad00"/><polyline points="180.78 74.79 161.01 101.01 202.24 90.97" fill="#197200"/><polyline points="196.62 94.54 165.22 104.17 204.5 120.23" fill="#add3a1"/><polyline points="173.32 98.66 141.92 108.29 181.2 124.35" fill="#22ad00"/><polyline points="183.91 102.73 168.88 73.52 160.02 115.02" fill="#197200"/><polyline points="201.89 101.5 186.86 72.3 177.99 113.8" fill="#22ad00"/><polyline points="191.04 127.67 196.8 95.33 164.58 122.95" fill="#197200"/><polygon points="158.78 97.79 148.74 56.56 132.56 78.02 158.78 97.79" fill="#22ad00"/><polyline points="153.79 68.22 134.01 94.44 175.24 84.4" fill="#197200"/><polyline points="169.63 87.97 138.22 97.6 177.5 113.67" fill="#22ad00"/><polyline points="146.33 92.09 114.92 101.72 154.2 117.78" fill="#22ad00"/><polyline points="156.92 96.16 141.88 66.95 133.02 108.45" fill="#197200"/><polyline points="174.89 94.94 159.86 65.73 151 107.23" fill="#22ad00"/><polyline points="164.04 121.1 169.8 88.76 137.59 116.39" fill="#197200"/><polygon points="123.03 71.11 97.64 37.1 91.16 63.18 123.03 71.11" fill="#22ad00"/><polyline points="106.85 45.85 98.92 77.73 132.93 52.34" fill="#197200"/><polyline points="129.16 57.83 104.04 78.98 146.47 78.38" fill="#22ad00"/><polyline points="109.33 70.74 84.21 91.9 126.64 91.3" fill="#22ad00"/><polyline points="120.67 70.34 95.41 49.35 103.5 91.01" fill="#197200"/><polyline points="136.73 62.17 111.47 41.19 119.56 82.84" fill="#22ad00"/><polyline points="136.99 90.5 129.63 58.49 110.8 96.52" fill="#197200"/><polygon points="102.03 99.39 142.59 86.93 120.22 72.05 102.03 99.39" fill="#22ad00"/><polyline points="131.25 92.66 103.91 74.47 116.37 115.03" fill="#197200"/><polyline points="112.47 109.64 101 78.86 87.29 119.02" fill="#22ad00"/><polyline points="106.98 86.62 95.51 55.85 81.8 96.01" fill="#22ad00"/><polyline points="103.55 97.44 131.81 80.7 89.86 74.31" fill="#197200"/><polyline points="105.83 115.31 134.09 98.57 92.14 92.18" fill="#22ad00"/><polyline points="79.07 106.03 111.69 109.86 82.21 79.34" fill="#197200"/><polygon points="139.78 110.63 180.35 98.17 157.98 83.29 139.78 110.63" fill="#22ad00"/><polyline points="169.01 103.89 141.66 85.7 154.13 126.27" fill="#197200"/><polyline points="150.23 120.88 138.76 90.1 125.05 130.26" fill="#22ad00"/><polyline points="144.74 97.86 133.27 67.08 119.56 107.25" fill="#22ad00"/><polyline points="141.31 108.67 169.57 91.94 127.62 85.55" fill="#197200"/><polyline points="143.59 126.54 171.85 109.81 129.9 103.42" fill="#22ad00"/><polyline points="116.83 117.26 149.45 121.1 119.97 90.57" fill="#197200"/><polygon points="144.74 83.3 185.31 70.83 162.94 55.95 144.74 83.3" fill="#22ad00"/><polyline points="173.97 76.56 146.62 58.37 159.09 98.93" fill="#197200"/><polyline points="155.19 93.54 143.72 62.76 130.01 102.92" fill="#22ad00"/><polyline points="149.7 70.52 138.23 39.75 124.52 79.91" fill="#22ad00"/><polyline points="146.27 81.33 174.53 64.6 132.57 58.21" fill="#add3a1"/><polyline points="148.55 99.2 176.81 82.47 134.86 76.08" fill="#22ad00"/><polyline points="121.79 89.92 154.41 93.76 124.93 63.24" fill="#197200"/><polygon points="101.38 124.81 131.74 95.17 105.04 92.17 101.38 124.81" fill="#add3a1"/><polyline points="124.28 105.45 91.64 101.79 121.28 132.15" fill="#197200"/><polyline points="115.35 129.14 91.07 107.03 97.25 149.01" fill="#22ad00"/><polyline points="99.94 111.19 75.66 89.07 81.84 131.06" fill="#22ad00"/><polyline points="101.83 122.37 119.31 94.56 79.08 108.08" fill="#197200"/><polyline points="112.04 137.22 129.51 109.41 89.29 122.92" fill="#22ad00"/><polyline points="84 141.21 114.76 129.7 74.58 116.04" fill="#197200"/><polygon points="70.57 107.72 88.27 146.29 100.08 122.15 70.57 107.72" fill="#22ad00"/><polyline points="81.1 135.81 95.53 106.3 56.96 124" fill="#197200"/><polyline points="61.79 119.42 90.79 104 49.17 95.7" fill="#22ad00"/><polyline points="83.89 110.95 112.88 95.52 71.26 87.22" fill="#add3a1"/><polyline points="72.72 108.97 93.03 134.78 93.83 92.35" fill="#197200"/><polyline points="55.3 113.59 75.61 139.4 76.42 96.97" fill="#22ad00"/><polyline points="60.98 85.84 61.47 118.68 87.84 85.44" fill="#197200"/><polygon points="64.41 146.63 82.11 185.2 93.91 161.06 64.41 146.63" fill="#22ad00"/><polyline points="74.94 174.72 89.36 145.21 50.8 162.91" fill="#197200"/><polyline points="55.63 158.33 84.62 142.91 43.01 134.61" fill="#22ad00"/><polyline points="77.72 149.86 106.72 134.43 65.1 126.14" fill="#22ad00"/><polyline points="66.55 147.88 86.86 173.69 87.67 131.26" fill="#197200"/><polyline points="49.14 152.5 69.45 178.31 70.25 135.88" fill="#22ad00"/><polyline points="54.81 124.75 55.3 157.59 81.68 124.35" fill="#197200"/><polygon points="92.16 147.94 109.86 186.51 121.67 162.37 92.16 147.94" fill="#22ad00"/><polyline points="102.69 176.03 117.12 146.52 78.55 164.22" fill="#197200"/><polyline points="83.38 159.65 112.38 144.22 70.76 135.92" fill="#22ad00"/><polyline points="105.47 151.17 134.47 135.75 92.85 127.45" fill="#22ad00"/><polyline points="94.3 149.19 114.61 175.01 115.42 132.58" fill="#add3a1"/><polyline points="76.89 153.81 97.2 179.63 98.01 137.2" fill="#22ad00"/><polyline points="82.56 126.06 83.06 158.91 109.43 125.66" fill="#add3a1"/></svg>