<svg xmlns="http://www.w3.org/2000/svg" xmlns:xlink="http://www.w3.org/1999/xlink" viewBox="0 0 313.92 313.92"><defs><clipPath id="a"><circle cx="156.96" cy="158.66" r="105.95" fill="none"/></clipPath></defs><title>Supreme</title><circle cx="156.96" cy="156.96" r="156.96" fill="#fff"/><circle cx="156.96" cy="156.96" r="130.8" fill="#ff8400"/><circle cx="156.96" cy="158.66" r="105.95" fill="#ffae00"/><g clip-path="url(#a)"><path d="M154.87,211.41s15.54-22.64,9.88-33.95-21.2,25.47-20.5,26.18-4.94,9.19,2.84,8.48Z" fill="red"/><circle cx="68.55" cy="108.02" r="16.14" fill="#b77500"/><path d="M219.19,175.31s-4.93,24.76-30.39,14.87S219.19,175.31,219.19,175.31Z" fill="#00a000"/><path d="M144.22,131.51s14.13-29.71-9.91-25.45S144.22,131.51,144.22,131.51Z" fill="#00a000"/><path d="M97.58,195.17s-12-30.4-24.76-21.91S97.58,195.17,97.58,195.17Z" fill="red"/><path d="M227.67,154.1s-1.42-12.73-11.32-11.31-29.69,17-21.91,19.1S227.67,154.1,227.67,154.1Z" fill="#fffbb0"/><path d="M238.29,178.84s4.94-7.78-.72-12-9.89,17-9.89,17-3.53,13.43.72,12S238.29,178.84,238.29,178.84Z" fill="red"/><path d="M154.84,159.08s.07-.63.16-1.67c.42-5.41,1.05-21.91-7.24-19.54-9.9,2.84-14.85,6.37-11.31,11.32S154.84,159.08,154.84,159.08Z" fill="#fffbb0"/><path d="M210.67,90.47s4.24-1.42.7-9.2-19.09,7.79-19.09,10.62-1.4,19.8,1.43,18.38S210.67,90.47,210.67,90.47Z" fill="#00a000"/><path d="M123,130.11s-7.09-21.21-17.69-12-3.52,31.83,5.67,25.46S123,130.11,123,130.11Z" fill="red"/><circle cx="63.65" cy="206.31" r="16.14" fill="#b77500"/><circle cx="224.82" cy="118.55" r="16.14" fill="#b77500"/><circle cx="178.16" cy="135.54" r="16.14" fill="#b77500"/><circle cx="120.91" cy="182.94" r="16.14" fill="#b77500"/><path d="M154.87,222.72s-4.94,24.75-30.4,14.87S154.87,222.72,154.87,222.72Z" fill="#00a000"/><path d="M168.45,253.29s.49-.67,1.26-1.82c4-5.93,15.75-24.82,8.07-31.64-9.17-8.13-15.2-9.67-16,.32S168.45,253.29,168.45,253.29Z" fill="#fffbb0"/><circle cx="100.43" cy="243.06" r="16.14" fill="#b77500"/><circle cx="242.55" cy="211.17" r="16.14" fill="#b77500"/><circle cx="207.47" cy="230.99" r="20.95" fill="#ff754a"/><circle cx="67.42" cy="147.61" r="20.95" fill="#ff754a"/><circle cx="116.88" cy="74.05" r="20.95" fill="#ce2700"/><circle cx="251.27" cy="148.94" r="20.95" fill="#ff754a"/><circle cx="121.18" cy="182.94" r="20.95" fill="#ce2700"/><circle cx="179.1" cy="61.29" r="20.95" fill="#ce2700"/><circle cx="179.84" cy="132.71" r="20.95" fill="#611717"/><circle cx="98.58" cy="248.01" r="20.95" fill="#611717"/></g></svg>