<svg xmlns="http://www.w3.org/2000/svg" xmlns:xlink="http://www.w3.org/1999/xlink" viewBox="0 0 313.92 313.92"><defs><clipPath id="a"><circle cx="158.16" cy="155.76" r="105.95" fill="none"/></clipPath></defs><title>Asset 6</title><circle cx="156.96" cy="156.96" r="156.96" fill="#fff"/><circle cx="156.96" cy="156.96" r="130.8" fill="#ff8400"/><circle cx="158.16" cy="155.76" r="105.95" fill="#ffae00"/><g clip-path="url(#a)"><circle cx="174.63" cy="128.91" r="20.95" fill="#611717"/><circle cx="228.63" cy="131.91" r="20.95" fill="#ce2700"/><circle cx="213.63" cy="86.91" r="20.95" fill="#ce2700"/><circle cx="197.63" cy="230.91" r="20.95" fill="#ce2700"/><circle cx="192.63" cy="176.91" r="20.95" fill="#ce2700"/><circle cx="150.63" cy="200.91" r="20.95" fill="#611717"/><circle cx="125.63" cy="156.91" r="20.95" fill="#ce2700"/><circle cx="165.63" cy="77.91" r="20.95" fill="#ce2700"/><circle cx="123.63" cy="105.91" r="20.95" fill="#611717"/><circle cx="77.63" cy="132.91" r="20.95" fill="#ce2700"/><circle cx="94.63" cy="206.91" r="20.95" fill="#ce2700"/><circle cx="149.63" cy="250.91" r="20.95" fill="#ce2700"/><circle cx="252.63" cy="195.91" r="20.95" fill="#611717"/><circle cx="268.63" cy="153.91" r="20.95" fill="#ce2700"/><circle cx="77.63" cy="89.91" r="20.95" fill="#ce2700"/><circle cx="117.63" cy="56.91" r="20.95" fill="#ce2700"/><circle cx="56.63" cy="180.91" r="20.95" fill="#611717"/></g></svg>