<svg xmlns="http://www.w3.org/2000/svg" xmlns:xlink="http://www.w3.org/1999/xlink" viewBox="0 0 313.92 313.92"><defs><clipPath id="a"><circle cx="158.16" cy="155.76" r="105.95" fill="none"/></clipPath></defs><title>Veggie</title><circle cx="156.96" cy="156.96" r="156.96" fill="#fff"/><circle cx="156.96" cy="156.96" r="130.8" fill="#ff8400"/><circle cx="158.16" cy="155.76" r="105.95" fill="#ffae00"/><g clip-path="url(#a)"><circle cx="87.82" cy="93.1" r="16.14" fill="#b77500"/><path d="M197,120s-27,5-31,17,33-3,33-4,10-3,4-8Z" fill="red"/><circle cx="184.82" cy="254.1" r="16.14" fill="#b77500"/><path d="M126,100s21-14,32,11S126,100,126,100Z" fill="#00a000"/><path d="M148,184s-31,11-11,25S148,184,148,184Z" fill="#00a000"/><path d="M226,172s-13,30,2,33S226,172,226,172Z" fill="red"/><path d="M105,109s-8,10,0,16,33,9,29,2S105,109,105,109Z" fill="#fffbb0"/><path d="M115,84s-9,2-8,9,19-5,19-5,12-7,8-9S115,84,115,84Z" fill="red"/><path d="M160,157s-.5.39-1.3,1.07c-4.12,3.53-16.24,14.74-8.7,18.93,9,5,15,6,16,0S160,157,160,157Z" fill="#fffbb0"/><path d="M72,166s-4-2-7,6,19,8,21,6,15-13,12-14S72,166,72,166Z" fill="#00a000"/><path d="M162,200s-10,20,4,21,25-20,14-22S162,200,162,200Z" fill="red"/><circle cx="257.82" cy="188.1" r="16.14" fill="#b77500"/><circle cx="141.82" cy="243.1" r="16.14" fill="#b77500"/><circle cx="81.82" cy="136.1" r="16.14" fill="#b77500"/><circle cx="126.82" cy="157.1" r="16.14" fill="#b77500"/><circle cx="97.82" cy="205.1" r="16.14" fill="#b77500"/><circle cx="168.82" cy="71.1" r="16.14" fill="#b77500"/><circle cx="200.82" cy="164.1" r="16.14" fill="#b77500"/><circle cx="202.82" cy="219.1" r="16.14" fill="#b77500"/><path d="M205,112s21-14,32,11S205,112,205,112Z" fill="#00a000"/><path d="M217,80.75s-.81.13-2.17.39c-7,1.36-28.69,6.41-28.08,16.66.72,12.23,3.9,17.59,11.53,11.09S217,80.75,217,80.75Z" fill="#fffbb0"/><circle cx="257.82" cy="136.1" r="16.14" fill="#b77500"/><circle cx="134.82" cy="58.1" r="16.14" fill="#b77500"/></g></svg>