<svg xmlns="http://www.w3.org/2000/svg" viewBox="0 0 313.92 313.92"><title>breadsticks</title><circle cx="156.96" cy="156.96" r="156.96" fill="#fff"/><path d="M97.16,248.61c-8,0-13.56-1.93-14.41-3.8l-.12-.29V76.08h.44l-.32-.71a1.25,1.25,0,0,1-.12-.48c0-2,6-4.28,14.53-4.28s14.53,2.26,14.53,4.28a1.12,1.12,0,0,1-.13.48l-.32.71h.45V244.52l-.13.29C110.72,246.68,105.1,248.61,97.16,248.61Z" fill="#ff8e12"/><path d="M97.16,71.11c8.56,0,14,2.24,14,3.78a.66.66,0,0,1-.08.27l-.64,1.42h.72V244.42l-.08.18c-.77,1.69-6.32,3.51-14,3.51s-13.19-1.82-14-3.51l-.08-.18V76.58h.71l-.63-1.42a.66.66,0,0,1-.08-.27c0-1.54,5.46-3.78,14-3.78m0-1c-8.3,0-15,2.14-15,4.78a1.71,1.71,0,0,0,.17.69h-.17V245h.17c1,2.32,7.29,4.1,14.86,4.1S111,247.33,112,245h.17V75.58H112a1.71,1.71,0,0,0,.17-.69c0-2.64-6.73-4.78-15-4.78Z" fill="#cc6e11"/><path d="M127.22,248.61c-7.94,0-13.56-1.93-14.41-3.8l-.12-.29V76.08h.44l-.32-.71a1.25,1.25,0,0,1-.12-.48c0-2,6-4.28,14.53-4.28s14.53,2.26,14.53,4.28a1.12,1.12,0,0,1-.13.48l-.31.71h.44V244.53l-.13.28C140.78,246.68,135.16,248.61,127.22,248.61Z" fill="#ff8e12"/><path d="M127.22,71.11c8.56,0,14,2.24,14,3.78a.66.66,0,0,1-.08.27l-.64,1.42h.72V244.42l-.08.18c-.76,1.69-6.31,3.51-13.95,3.51s-13.19-1.82-14-3.51l-.08-.18V76.58h.72l-.64-1.42a.66.66,0,0,1-.08-.27c0-1.54,5.46-3.78,14-3.78m0-1c-8.3,0-15,2.14-15,4.78a1.71,1.71,0,0,0,.17.69h-.17V245h.17c1,2.32,7.29,4.1,14.86,4.1s13.81-1.78,14.86-4.1h.17V75.58h-.17a1.71,1.71,0,0,0,.17-.69c0-2.64-6.73-4.78-15-4.78Z" fill="#cc6e11"/><path d="M157.28,248.61c-7.94,0-13.56-1.93-14.4-3.8l-.13-.29V76.08h.44l-.32-.71a1.25,1.25,0,0,1-.12-.48c0-2,6-4.28,14.53-4.28s14.53,2.26,14.53,4.28a1.12,1.12,0,0,1-.13.48l-.31.71h.44V244.53l-.13.28C170.84,246.68,165.22,248.61,157.28,248.61Z" fill="#ff8e12"/><path d="M157.28,71.11c8.56,0,14,2.24,14,3.78a.66.66,0,0,1-.08.27l-.64,1.42h.72V244.42l-.08.18c-.76,1.69-6.31,3.51-13.95,3.51s-13.19-1.82-13.95-3.51l-.08-.18V76.58H144l-.64-1.42a.66.66,0,0,1-.08-.27c0-1.54,5.46-3.78,14-3.78m0-1c-8.3,0-15,2.14-15,4.78a1.71,1.71,0,0,0,.17.69h-.17V245h.17c1,2.32,7.29,4.1,14.86,4.1s13.81-1.78,14.86-4.1h.17V75.58h-.17a1.71,1.71,0,0,0,.17-.69c0-2.64-6.73-4.78-15-4.78Z" fill="#cc6e11"/><path d="M185.46,248.61c-7.94,0-13.56-1.93-14.4-3.8l-.13-.29V76.08h.44l-.31-.71a1.12,1.12,0,0,1-.13-.48c0-2,6-4.28,14.53-4.28S200,72.87,200,74.89a1.25,1.25,0,0,1-.12.48l-.32.71H200V244.53l-.12.28C199,246.68,193.4,248.61,185.46,248.61Z" fill="#ff8e12"/><path d="M185.46,71.11c8.57,0,14,2.24,14,3.78a.66.66,0,0,1-.08.27l-.64,1.42h.72V244.42l-.08.18c-.76,1.69-6.31,3.51-13.95,3.51s-13.19-1.82-14-3.51l-.08-.18V76.58h.72l-.64-1.42a.66.66,0,0,1-.08-.27c0-1.54,5.47-3.78,14-3.78m0-1c-8.3,0-15,2.14-15,4.78a1.71,1.71,0,0,0,.17.69h-.17V245h.17c1.05,2.32,7.29,4.1,14.86,4.1s13.82-1.78,14.86-4.1h.17V75.58h-.17a1.71,1.71,0,0,0,.17-.69c0-2.64-6.73-4.78-15-4.78Z" fill="#cc6e11"/><path d="M215.52,248.61c-7.94,0-13.56-1.93-14.4-3.8l-.13-.29V76.08h.45l-.32-.71a1.12,1.12,0,0,1-.13-.48c0-2,6-4.28,14.53-4.28s14.53,2.26,14.53,4.28a1.25,1.25,0,0,1-.12.48l-.32.71h.44V244.52l-.12.29C229.08,246.68,223.47,248.61,215.52,248.61Z" fill="#ff8e12"/><path d="M215.52,71.11c8.57,0,14,2.24,14,3.78a.66.66,0,0,1-.08.27l-.64,1.42h.72V244.42l-.08.18c-.76,1.69-6.31,3.51-13.95,3.51s-13.18-1.82-14-3.51l-.08-.18V76.58h.72l-.64-1.42a.66.66,0,0,1-.08-.27c0-1.54,5.47-3.78,14-3.78m0-1c-8.3,0-15,2.14-15,4.78a1.71,1.71,0,0,0,.17.69h-.17V245h.17c1.05,2.32,7.29,4.1,14.86,4.1s13.82-1.78,14.86-4.1h.17V75.58h-.17a1.71,1.71,0,0,0,.17-.69c0-2.64-6.73-4.78-15-4.78Z" fill="#cc6e11"/></svg>