<svg xmlns="http://www.w3.org/2000/svg" xmlns:xlink="http://www.w3.org/1999/xlink" viewBox="0 0 313.92 313.92"><defs><clipPath id="a"><circle cx="158.16" cy="155.76" r="105.95" fill="none"/></clipPath></defs><title>Asset 7</title><circle cx="156.96" cy="156.96" r="156.96" fill="#fff"/><circle cx="156.96" cy="156.96" r="130.8" fill="#ff8400"/><circle cx="158.16" cy="155.76" r="105.95" fill="#ffae00"/><g clip-path="url(#a)"><circle cx="228.63" cy="131.91" r="20.95" fill="#ce2700"/><circle cx="213.63" cy="86.91" r="20.95" fill="#ce2700"/><circle cx="197.63" cy="230.91" r="20.95" fill="#ce2700"/><circle cx="192.63" cy="176.91" r="20.95" fill="#ce2700"/><circle cx="125.63" cy="156.91" r="20.95" fill="#ce2700"/><circle cx="165.63" cy="77.91" r="20.95" fill="#ce2700"/><circle cx="76.63" cy="137.91" r="20.95" fill="#ce2700"/><circle cx="94.63" cy="206.91" r="20.95" fill="#ce2700"/><circle cx="149.63" cy="250.91" r="20.95" fill="#ce2700"/><circle cx="268.63" cy="153.91" r="20.95" fill="#ce2700"/><circle cx="77.63" cy="89.91" r="20.95" fill="#ce2700"/><circle cx="117.63" cy="56.91" r="20.95" fill="#ce2700"/></g><path d="M126,100s21-14,32,11S126,100,126,100Z" fill="#fff600"/><path d="M148,184s-31,11-11,25S148,184,148,184Z" fill="#fff600"/><path d="M226,172s-13,30,2,33S226,172,226,172Z" fill="#fff600"/><path d="M197,120s-27,5-31,17,33-3,33-4,10-3,4-8Z" fill="#fff600"/><path d="M105,109s-8,10,0,16,33,9,29,2S105,109,105,109Z" fill="#fff600"/><path d="M115,84s-9,2-8,9,19-5,19-5,12-7,8-9S115,84,115,84Z" fill="#fff600"/><path d="M160,157s-.5.39-1.3,1.07c-4.12,3.53-16.24,14.74-8.7,18.93,9,5,15,6,16,0S160,157,160,157Z" fill="#fff600"/><path d="M162,200s-10,20,4,21,25-20,14-22S162,200,162,200Z" fill="#fff600"/></svg>