<svg xmlns="http://www.w3.org/2000/svg" xmlns:xlink="http://www.w3.org/1999/xlink" viewBox="0 0 1153.07 545.11"><defs><clipPath id="a"><polygon points="35.68 67.53 203.69 544.46 371.7 67.53 35.68 67.53" fill="none"/></clipPath><radialGradient id="b" cx="91.44" cy="115.46" r="31.48" gradientTransform="translate(-7.73 -39.19) scale(1.26 1.4)" gradientUnits="userSpaceOnUse"><stop offset="0.78" stop-color="#c32817"/><stop offset="0.8" stop-color="#bf2817"/><stop offset="0.86" stop-color="#ac2817"/><stop offset="0.93" stop-color="#a12817"/><stop offset="1" stop-color="#9d2817"/></radialGradient><radialGradient id="c" cx="197.87" cy="124.45" r="31.48" xlink:href="#b"/><radialGradient id="d" cx="280.32" cy="115.46" r="31.48" xlink:href="#b"/><radialGradient id="e" cx="134.91" cy="193.41" r="31.48" xlink:href="#b"/><radialGradient id="f" cx="217.36" cy="199.41" r="31.48" xlink:href="#b"/><radialGradient id="g" cx="103.43" cy="271.36" r="31.48" xlink:href="#b"/><radialGradient id="h" cx="190.38" cy="262.37" r="31.48" xlink:href="#b"/><radialGradient id="i" cx="166.39" cy="358.31" r="31.48" xlink:href="#b"/><clipPath id="j"><polygon points="348.98 283.17 259.81 567.09 1153.81 546.09 1162.81 468.09 699.07 454.96 1172.81 449.09 1151.81 325.09 634.5 321.15 566.86 320.59 566.86 308.83 348.98 283.17" fill="none"/></clipPath></defs><title>super slice logo v2</title><polygon points="35.68 67.53 203.69 544.46 371.7 67.53 35.68 67.53" fill="#e89b00"/><ellipse cx="107.42" cy="121.92" rx="39.64" ry="43.93" fill="#c32817" opacity="0.4"/><polygon points="35.68 44.52 203.69 527.73 371.7 44.52 35.68 44.52" fill="#ffae00"/><g clip-path="url(#a)"><ellipse cx="107.42" cy="121.92" rx="39.64" ry="43.93" fill="url(#b)"/><ellipse cx="241.45" cy="134.47" rx="39.64" ry="43.93" fill="url(#c)"/><ellipse cx="345.27" cy="121.92" rx="39.64" ry="43.93" fill="url(#d)"/><ellipse cx="162.16" cy="230.69" rx="39.64" ry="43.93" fill="url(#e)"/><ellipse cx="265.99" cy="239.06" rx="39.64" ry="43.93" fill="url(#f)"/><ellipse cx="122.52" cy="339.47" rx="39.64" ry="43.93" fill="url(#g)"/><ellipse cx="232.01" cy="326.91" rx="39.64" ry="43.93" fill="url(#h)"/><ellipse cx="201.8" cy="460.79" rx="39.64" ry="43.93" fill="url(#i)"/></g><path d="M399.16,76.53c7.91-19.22-3.12-42.08-25.34-50v0A577.34,577.34,0,0,0,29.71,26C6.32,33.19-5.59,56.8,2.56,76.53s30.38,29.41,50.09,23.34a500,500,0,0,1,298,.49l0,0C369.92,105.41,391.24,95.8,399.16,76.53Z" fill="#ff8400"/><path d="M380.42,283.26q-17.4-5-26.16-10.94l18.19-42.5q30.66,20,58.86,20,15,0,25.52-6.41a33.48,33.48,0,0,0,14.67-18.9q3.08-9.39.43-15.48t-10-10.31q-7.37-4.22-24.07-11.72-15.81-6.87-25.13-14.53a35.82,35.82,0,0,1-12.29-19.69q-3-12,2.79-29.54a87.8,87.8,0,0,1,33.5-45.31q24.27-17.19,59-17.19a118.13,118.13,0,0,1,31.24,4.06,137.45,137.45,0,0,1,26.47,10l-17.11,40.94a147.18,147.18,0,0,0-27.86-12.65,89.23,89.23,0,0,0-27.52-4.22q-16.08,0-26.49,5.93A30,30,0,0,0,440.3,122q-2.88,8.76-.21,14.38a21.61,21.61,0,0,0,9.19,9.38,162.4,162.4,0,0,0,20,9.06q30.22,11.88,40.8,27.35t1.74,42.35q-8.41,25.62-30.75,44.69t-66.62,19.06A123,123,0,0,1,380.42,283.26Z" fill="#00c0ff"/><path d="M689.48,127.62,638.15,283.89H605.43l2.51-9.38a91.45,91.45,0,0,1-17.87,8.91A50.88,50.88,0,0,1,572.53,287q-31.31,0-39-20t3.93-55.32l27.61-84.07h35l-27.61,84.07q-7.19,21.88-4,32.35t17.86,10.47q16.35,0,30.82-13.13L654.5,127.62Z" fill="#00c0ff"/><path d="M827.44,136.06q10.8,10.94,12.07,29.38t-6,40.63a146.81,146.81,0,0,1-20.68,40.63,108.25,108.25,0,0,1-31.37,29.37,71.87,71.87,0,0,1-38,10.94q-12.69,0-20.6-3a35.69,35.69,0,0,1-13.94-9.53l-27.92,85H646l76.17-231.9h28.2l-1,14.38a100.5,100.5,0,0,1,23-12.66,68.39,68.39,0,0,1,24.24-4.22Q816.64,125.12,827.44,136.06ZM777.23,241.69q13.15-13.42,20.45-35.62t3-35.63Q796.31,157,780.8,157q-17.5,0-30.55,13.12T729.7,206.07q-7.49,22.82-3.06,35.94t21.92,13.12Q764.07,255.13,777.23,241.69Z" fill="#00c0ff"/><path d="M860.9,275.92q-13.71-11.1-16.2-29.69t5-41.41a131.19,131.19,0,0,1,21.32-40,111.63,111.63,0,0,1,33.19-28.91,80.92,80.92,0,0,1,40.49-10.78q19.74,0,30.45,9.06t12.58,24.38q1.88,15.31-4.38,34.38a147.44,147.44,0,0,1-9.24,21.25H883q-4,20.63,4.55,30.79t25.15,10.15q22.85,0,46.52-12.81l-9.09,32.82a119.8,119.8,0,0,1-23.83,8.59A111.09,111.09,0,0,1,899.14,287Q874.6,287,860.9,275.92Zm88.55-88q4-12.19.88-21.57T934.23,157a37.22,37.22,0,0,0-23.65,8.44q-10.67,8.43-18.1,22.5Z" fill="#00c0ff"/><path d="M1028.78,127.62h32.71l-4.59,16.56a95.94,95.94,0,0,1,20.45-13.75q11.69-5.93,22.4-5.94a25.7,25.7,0,0,1,6,.63l-15.06,38.13a39,39,0,0,0-29.18,3,42.57,42.57,0,0,0-14.08,11.09l-35,106.58h-35Z" fill="#00c0ff"/><g clip-path="url(#j)"><path d="M311.54,540q-17.73-5.1-26.66-11.15l18.54-43.32q31.24,20.38,60,20.39,15.24,0,26-6.53a34.16,34.16,0,0,0,14.95-19.28q3.13-9.56.44-15.76T394.6,453.85q-7.5-4.31-24.53-12-16.1-7-25.61-14.81A36.5,36.5,0,0,1,331.94,407q-3-12.25,2.84-30.1a89.52,89.52,0,0,1,34.15-46.19q24.72-17.5,60.08-17.51a120.47,120.47,0,0,1,31.84,4.14,140.17,140.17,0,0,1,27,10.19l-17.44,41.73A149,149,0,0,0,442,356.38a91.11,91.11,0,0,0-28.05-4.3q-16.4,0-27,6.05a30.47,30.47,0,0,0-14.38,17.52q-2.93,8.93-.21,14.65a22,22,0,0,0,9.36,9.56,165,165,0,0,0,20.4,9.23Q432.92,421.21,443.7,437t1.78,43.16q-8.58,26.13-31.35,45.55t-67.9,19.44A125.51,125.51,0,0,1,311.54,540Z" fill="#00c0ff"/><path d="M532.46,532.36q-5.28-11.4.68-29.53l64.57-196.59h35L573.35,486.89q-4.11,12.5-4.53,17.66c-.29,3.43.53,5.52,2.46,6.25s5.51,1.09,10.78,1.09l-13.58,31.88H555.79Q537.75,543.77,532.46,532.36Z" fill="#00c0ff"/><path d="M715.32,384.38h35L699,540.65H664Zm20.54-62.51h35L758.1,360.62h-35Z" fill="#00c0ff"/><path d="M828.55,533q-13.24-10.79-15.65-29.23t5-40.94A134.88,134.88,0,0,1,840,421.41,108.18,108.18,0,0,1,875,392a94.4,94.4,0,0,1,44.72-10.78q21.72,0,34.51,10l-13.09,31.26q-12.36-8.76-28.71-8.76-20,0-35.73,13.44t-23,35.63q-7,21.26,0,35.16t26.18,13.91q16.08,0,35.54-10.31l-7.67,32.81a92.82,92.82,0,0,1-20.17,6.88,101.66,101.66,0,0,1-22.4,2.5Q841.79,543.77,828.55,533Z" fill="#00c0ff"/><path d="M1025.8,532.67q-13.69-11.08-16.19-29.69t5-41.41a131.14,131.14,0,0,1,21.32-40,111.63,111.63,0,0,1,33.19-28.91,80.93,80.93,0,0,1,40.49-10.79q19.74,0,30.45,9.07t12.58,24.38q1.88,15.31-4.38,34.38A145.7,145.7,0,0,1,1139,471h-91.1q-4,20.63,4.55,30.78t25.16,10.16q22.85,0,46.51-12.81l-9.08,32.81a119.51,119.51,0,0,1-23.84,8.6,111,111,0,0,1-27.17,3.28Q1039.5,543.77,1025.8,532.67Zm88.55-88q4-12.19.88-21.57t-16.1-9.38a37.23,37.23,0,0,0-23.64,8.44q-10.68,8.44-18.11,22.51Z" fill="#00c0ff"/></g></svg>